<?xml version="1.0" encoding="UTF-8"?>
<svg width="280px" height="215px" viewBox="0 0 280 215" version="1.1" xmlns="http://www.w3.org/2000/svg" xmlns:xlink="http://www.w3.org/1999/xlink">
    <!-- Generator: Sketch 52.6 (67491) - http://www.bohemiancoding.com/sketch -->
    <title>Group</title>
    <desc>Created with Sketch.</desc>
    <defs>
        <filter x="-13.2%" y="-4.9%" width="131.2%" height="127.7%" filterUnits="objectBoundingBox" id="filter-1">
            <feOffset dx="0" dy="1" in="SourceAlpha" result="shadowOffsetOuter1"></feOffset>
            <feGaussianBlur stdDeviation="2" in="shadowOffsetOuter1" result="shadowBlurOuter1"></feGaussianBlur>
            <feColorMatrix values="0 0 0 0 0   0 0 0 0 0   0 0 0 0 0  0 0 0 0.221637228 0" type="matrix" in="shadowBlurOuter1" result="shadowMatrixOuter1"></feColorMatrix>
            <feMerge>
                <feMergeNode in="shadowMatrixOuter1"></feMergeNode>
                <feMergeNode in="SourceGraphic"></feMergeNode>
            </feMerge>
        </filter>
        <filter x="-12.4%" y="-37.5%" width="124.8%" height="175.0%" filterUnits="objectBoundingBox" id="filter-2">
            <feGaussianBlur stdDeviation="10" in="SourceGraphic"></feGaussianBlur>
        </filter>
    </defs>
    <g id="Page-1" stroke="none" stroke-width="1" fill="none" fill-rule="evenodd">
        <g id="etusivu-ei_kirjautunut-desktop" transform="translate(-575.000000, -627.000000)">
            <g id="Group-3" transform="translate(42.000000, 65.000000)">
                <g id="Group" filter="url(#filter-1)" transform="translate(537.000000, 565.000000)">
                    <ellipse id="Oval-2" fill-opacity="0.145861639" fill="#000000" filter="url(#filter-2)" transform="translate(141.000000, 137.000000) rotate(-18.000000) translate(-141.000000, -137.000000) " cx="141" cy="137" rx="121" ry="40"></ellipse>
                    <path d="M101.696674,55.9066059 C91.9818386,53.8112156 109.031883,20.8863488 98.7268927,14.8045111 C88.4219019,8.72267334 76.1067119,5.57071866 66.3824479,2.08962719 C56.658184,-1.39146428 51.5332897,-0.810638545 44.3552859,6.0212704 C37.1772822,12.8531793 37.1772822,21.9688434 38.7481748,31.266265 C40.3190674,40.5636867 47.9722522,53.4294756 47.9722522,55.9066059 C47.9722522,58.3837361 39.9090298,57.8608626 35.6301004,58.3837361 C19.059656,60.4085995 8.02623664,62.5666228 6.53575504,67.1957997 C3.72270968,75.9326298 9.34880041,82.6813469 9.34880041,88.550414 C9.34880041,94.4194811 3.54866644e-16,97.6507147 0,106.023214 C0,114.395714 6.06948325,115.478123 6.53575504,122.422708 C7.00202684,129.367294 0,129.367294 2.12978037,137.743857 C4.25956074,146.12042 11.0432846,146.528799 12.9806792,151.940683 C14.9180739,157.352568 5.37537683,156.741301 9.34880041,164.133768 C12.6738315,170.319915 42.0183709,190.165183 61.6411996,190.997397 C65.4677186,191.159681 66.9495124,183.683398 69.9582323,182.81077 C88.3960141,177.463206 111.411509,58.0019961 101.696674,55.9066059 Z" id="Path-22" fill="#F4C4CF"></path>
                    <path d="M113,47 C117.484417,52.8341419 120.861951,55.9127471 123.132602,56.2358157 C125.403253,56.5588843 128.982217,55.7687188 133.869496,53.8653193 C139.809627,56.163718 144.078764,57.9313989 146.676907,59.1683619 C149.27505,60.4053249 156.716081,64.2052832 169,70.5682368 C156.814706,76.5901522 145.104538,77.6049276 133.869496,73.6125629 C122.634454,69.6201982 115.677955,60.7493439 113,47 Z" id="Path-23" fill="#F7B5C4"></path>
                    <path d="M133,53.0331851 C138.925557,50.2435799 143.643451,48.1407801 147.153683,46.7247858 C150.663915,45.3087915 154.888608,44.0671962 159.827762,43 C170.094818,46.6587993 177.67661,49.4667953 182.573137,51.4239882 C187.469663,53.381181 194.611951,56.3225182 204,60.2479998 L167.49399,71 C157.751336,65.2502326 150.15532,61.035757 144.70594,58.3565731 C139.25656,55.6773892 135.35458,53.9029265 133,53.0331851 Z" id="Path-25" fill="#F4C4CF"></path>
                    <path d="M170,69.2301308 C153.401917,70.6110556 141.873568,70.6110556 135.414953,69.2301308 C125.72703,67.1587434 117.930455,55.3143744 111.817032,42.605091 C105.703609,29.8958076 108.69154,21.6693518 100.198555,16.0296323 C91.7055691,10.3899128 85.3905317,13.1625895 78.2324125,19.9162381 C71.0742933,26.6698866 71.0742933,35.6811296 72.6408342,44.8720481 C74.2073751,54.0629666 81.839359,66.7813763 81.839359,69.2301308 C81.839359,71.6788852 73.7984734,71.1620012 69.5313976,71.6788852 C53.0068567,73.6805535 42.0040023,75.8138564 40.5176496,80.3900054 C37.712397,89.0267541 43.3229023,95.6981638 43.3229023,101.5 C43.3229023,107.301836 34,110.496056 34,118.772647 C34,127.049239 40.0526695,128.119249 40.5176496,134.984283 C40.9826298,141.849317 34,141.849317 36.1238804,150.129926 C38.2477609,158.410534 45.0126924,158.814235 46.94472,164.164126 C48.8767477,169.514016 42.9823037,174.007262 46.94472,181.315048 C49.5863309,186.186905 54.2558936,189.081889 60.9534082,190 C88.3927461,184.856698 108.241317,180.522944 120.49912,176.998739 C132.756924,173.474534 147.935932,168.325447 166.036144,161.551478 C165.581926,141.836541 165.581926,126.689521 166.036144,116.110419 C166.490362,105.531317 167.811648,89.9045543 170,69.2301308 Z" id="Path-22" fill="#FF96AC"></path>
                    <path d="M168.717003,69.737837 C176.965626,66.4726758 183.232976,64.2436917 187.519053,63.0508847 C191.805129,61.8580777 197.632112,60.8411161 205,60 C204.338391,78.7878788 203.922047,92.6776732 203.750969,101.669383 C203.579891,110.661093 202.967785,128.799082 201.914652,156.083352 C194.430468,158.963415 188.829325,160.892572 185.111221,161.87082 C181.393117,162.849069 174.430611,164.225462 164.223702,166 C163.925433,152.7207 163.925433,142.508428 164.223702,135.363183 C164.521972,128.217939 166.019739,106.342824 168.717003,69.737837 Z" id="Path-24" fill="#FF96AC"></path>
                    <path d="M133,52 L133.069229,55.3103879 L134.778909,54.699875 C141.439212,57.4496076 145.806865,59.3402892 147.881869,60.3719198 C149.956873,61.4035505 155.825014,64.5662405 165.486293,69.85999 C164.378228,92.8291393 163.613988,110.053487 163.193571,121.533034 C162.773154,133.012581 162.401965,146.791319 162.080003,162.869249 L163.968454,165 C164.459897,141.789752 164.965844,123.992944 165.486293,111.609577 C166.006742,99.2262105 166.844645,85.0480162 168,69.0749947 C155.963866,61.9054668 147.479362,57.3172645 142.546487,55.3103879 C141.156609,54.7449338 139.94919,54.2427377 138.844326,53.8148824 C138.1694,53.5535196 137.511314,53.3203744 136.935812,53.1161057 C136.085584,52.8143252 135.169208,52.524828 134.226726,52.2816392 C133.955405,52.2116304 133.546497,52.1177506 133,52 Z" id="Path-26" fill="#F7B5C4"></path>
                </g>
            </g>
        </g>
    </g>
</svg>