<?xml version="1.0" encoding="UTF-8"?>
<svg width="165px" height="124px" viewBox="0 0 165 124" version="1.1" xmlns="http://www.w3.org/2000/svg" xmlns:xlink="http://www.w3.org/1999/xlink">
    <!-- Generator: Sketch 52.6 (67491) - http://www.bohemiancoding.com/sketch -->
    <title>Group</title>
    <desc>Created with Sketch.</desc>
    <defs>
        <filter x="-33.9%" y="-40.1%" width="161.1%" height="180.2%" filterUnits="objectBoundingBox" id="filter-1">
            <feOffset dx="0" dy="1" in="SourceAlpha" result="shadowOffsetOuter1"></feOffset>
            <feGaussianBlur stdDeviation="2" in="shadowOffsetOuter1" result="shadowBlurOuter1"></feGaussianBlur>
            <feColorMatrix values="0 0 0 0 0   0 0 0 0 0   0 0 0 0 0  0 0 0 0.208220109 0" type="matrix" in="shadowBlurOuter1" result="shadowMatrixOuter1"></feColorMatrix>
            <feMerge>
                <feMergeNode in="shadowMatrixOuter1"></feMergeNode>
                <feMergeNode in="SourceGraphic"></feMergeNode>
            </feMerge>
        </filter>
        <filter x="-26.9%" y="-35.7%" width="153.8%" height="171.4%" filterUnits="objectBoundingBox" id="filter-2">
            <feGaussianBlur stdDeviation="10" in="SourceGraphic"></feGaussianBlur>
        </filter>
    </defs>
    <g id="Page-1" stroke="none" stroke-width="1" fill="none" fill-rule="evenodd">
        <g id="etusivu-ei_kirjautunut-desktop" transform="translate(-328.000000, -734.000000)">
            <g id="Group-3" transform="translate(42.000000, 65.000000)">
                <g id="Group" filter="url(#filter-1)" transform="translate(364.500000, 735.000000) scale(-1, 1) translate(-364.500000, -735.000000) translate(290.000000, 672.000000)">
                    <path d="M80.5145192,105.188314 C50.7946771,105.188314 13.712834,55.939339 13.712834,39.2310485 C13.712834,22.522758 26.0114117,21.1883137 55.7312539,21.1883137 C85.4510961,21.1883137 125.211795,56.0677623 125.211795,72.7760528 C125.211795,89.4843433 110.234361,105.188314 80.5145192,105.188314 Z" id="Oval-2" fill-opacity="0.169723732" fill="#000000" filter="url(#filter-2)" transform="translate(69.462315, 63.188314) rotate(-26.000000) translate(-69.462315, -63.188314) "></path>
                    <path d="M91.8300899,31.1215166 C86.5923051,29.9750722 95.7848918,11.9609928 90.2289228,8.6334559 C84.6729537,5.30591903 78.0331793,3.58139992 72.790311,1.67680123 C67.5474427,-0.227797471 64.7843394,0.0899878993 60.9142955,3.82790889 C57.0442517,7.56582987 57.0442517,12.5532547 57.8912035,17.6401239 C58.7381553,22.7269931 62.8643946,29.766212 62.8643946,31.1215166 C62.8643946,32.4768211 58.5170822,32.1907429 56.2100836,32.4768211 C47.276075,33.5846783 41.3273714,34.7653908 40.5237734,37.2981379 C39.0071109,42.0782924 42.0404359,45.7706969 42.0404359,48.9818213 C42.0404359,52.1929456 37,53.9608404 37,58.54166 C37,63.1224796 40.2723815,63.7146948 40.5237734,67.5142639 C40.7751654,71.313833 37,71.313833 38.148278,75.8968759 C39.2965559,80.4799187 42.9540225,80.7033537 43.9985751,83.6643412 C45.0431277,86.6253286 39.8981518,86.2908879 42.0404359,90.3355055 C43.8331372,93.7201129 59.6543402,104.577992 70.2340517,105.033319 C72.2971317,105.122109 73.0960456,101.031634 74.7182067,100.554195 C84.6589962,97.6283991 97.0678746,32.2679609 91.8300899,31.1215166 Z" id="Path-22" fill="#FF96AC"></path>
                    <path d="M98.4315348,26.6900889 C100.876824,29.9005618 102.718545,31.594689 103.956699,31.7724706 C105.194853,31.9502522 107.146412,31.5154316 109.811376,30.4680089 C113.050445,31.732796 115.378345,32.705534 116.795076,33.3862229 C118.211807,34.0669119 122.269296,36.1579929 128.967543,39.6594659 C122.323074,42.9732688 115.937685,43.5316901 109.811376,41.3347297 C103.685066,39.1377693 99.8917858,34.2562223 98.4315348,26.6900889 Z" id="Path-23" fill="#F7B5C4"></path>
                    <path d="M108.825995,28.9833989 C112.614646,27.3650986 115.473129,26.1719891 117.401443,25.4040704 C119.329756,24.6361517 121.650553,23.9628127 124.363832,23.3840534 C130.003946,25.3682848 134.168934,26.8911106 136.858797,27.9525308 C139.548659,29.0139509 143.483046,30.7831558 148.661958,33.2601454 L128.575205,38.5689472 C123.223167,35.450747 119.050365,33.1651625 116.056797,31.7121938 C113.06323,30.2592251 110.652962,29.3496268 108.825995,28.9833989 Z" id="Path-25" fill="#FF96AC"></path>
                    <path d="M129.180067,38.6648592 C120.206298,39.4291554 113.973485,39.4291554 110.481629,38.6648592 C105.243844,37.5184148 101.028619,30.9629485 97.7233908,23.9287807 C94.418163,16.894613 96.0335905,12.341542 91.4418499,9.22014382 C86.8501093,6.09874569 83.4358783,7.6333305 79.5658344,11.3712515 C75.6957905,15.1091725 75.6957905,20.0965973 76.5427423,25.1834665 C77.3896942,30.2703357 81.5159335,37.3095546 81.5159335,38.6648592 C81.5159335,40.0201637 77.1686211,39.7340855 74.8616225,40.0201637 C65.9276139,41.1280209 59.9789103,42.3087334 59.1753123,44.8414805 C57.6586498,49.621635 60.6919748,53.3140395 60.6919748,56.5251639 C60.6919748,59.7362882 55.6515389,61.504183 55.6515389,66.0850026 C55.6515389,70.6658222 58.9239204,71.2580374 59.1753123,75.0576065 C59.4267042,78.8571756 55.6515389,78.8571756 56.7998168,83.4402185 C57.9480948,88.0232613 61.6055614,88.2466963 62.650114,91.2076838 C63.6946665,94.1686712 60.5078298,96.6555339 62.650114,100.700151 C64.0783034,103.396563 66.6029069,104.998841 70.2239244,105.506985 C85.0590284,102.660338 95.7901768,100.261748 102.41737,98.3112175 C109.044563,96.3606867 117.251108,93.5108375 127.037005,89.7616699 C126.791431,78.8501042 126.791431,70.46673 127.037005,64.6115472 C127.282578,58.7563644 127.996932,50.1074684 129.180067,38.6648592 Z" id="Path-22" fill="#FFD1DB"></path>
                    <path d="M128.606046,38.4539225 C133.277756,36.7632978 136.783584,35.589689 139.123531,34.933096 C141.463478,34.2765029 144.644669,33.7167059 148.667105,33.2537047 C148.305905,43.5956881 148.078606,51.2414699 147.985207,56.1910501 C147.891808,61.1406304 147.557634,71.1248754 146.982685,86.1437853 C142.896759,87.7291463 139.838863,88.7910704 137.808996,89.3295576 C135.779129,89.8680448 131.978008,90.6256948 126.405634,91.6025075 C126.242796,84.2927786 126.242796,78.6713271 126.405634,74.7381531 C126.568472,70.8049791 127.301942,58.7102356 128.606046,38.4539225 Z" id="Path-24" fill="#F4C4CF"></path>
                    <path d="M108.826825,28.9867083 L108.866142,30.8217793 L109.837096,30.4833705 C113.619588,32.0075539 116.100047,33.0555632 117.278475,33.6273986 C118.456902,34.1992339 121.789512,35.9523206 127.276306,38.8866586 C126.647018,51.6185131 126.212994,61.1660105 125.974233,67.5291507 C125.735471,73.8922909 125.524667,81.5298786 125.34182,90.4419138 L126.414301,91.6229942 C126.693399,78.7574981 126.980734,68.892685 127.276306,62.028555 C127.571877,55.164425 128.047735,47.305418 128.70388,38.4515338 C121.868369,34.4774473 117.049884,31.9341958 114.248427,30.8217793 C113.459093,30.5083467 112.773381,30.2299782 112.145911,29.992817 C111.76261,29.847943 111.388872,29.71871 111.062035,29.6054834 C110.579177,29.4382057 110.058753,29.2777368 109.523502,29.1429366 C109.369415,29.1041306 109.137189,29.0520544 108.826825,28.9867083 Z" id="Path-26" fill="#F7B5C4"></path>
                </g>
            </g>
        </g>
    </g>
</svg>