<?xml version="1.0" encoding="UTF-8"?>
<svg width="1370px" height="815px" viewBox="0 0 1370 815" version="1.1" xmlns="http://www.w3.org/2000/svg" xmlns:xlink="http://www.w3.org/1999/xlink">
    <!-- Generator: Sketch 52.6 (67491) - http://www.bohemiancoding.com/sketch -->
    <title>Path 11</title>
    <desc>Created with Sketch.</desc>
    <defs>
        <linearGradient x1="50%" y1="-7.07123578%" x2="62.2733765%" y2="86.8576759%" id="linearGradient-1">
            <stop stop-color="#F7F9F9" offset="0%"></stop>
            <stop stop-color="#EDF1F1" offset="100%"></stop>
        </linearGradient>
    </defs>
    <g id="Page-1" stroke="none" stroke-width="1" fill="none" fill-rule="evenodd">
        <g id="etusivu-ei_kirjautunut-desktop" transform="translate(-42.000000, -65.000000)" fill="url(#linearGradient-1)">
            <g id="Group-3" transform="translate(42.000000, 65.000000)">
                <path d="M0.773914257,333.923972 C0.773914257,424.791686 -12.1165255,600.468328 81.4310105,706.010426 C174.978547,811.552524 298.544854,796.592192 395.587128,786.320267 C492.629401,776.048342 567.464549,681.464584 675.126855,671.130152 C782.78916,660.79572 765.70418,736.382387 904.810049,786.320267 C962.864358,807.161293 1205.25124,848.632501 1288.91734,759.384353 C1372.58343,670.136204 1281.35772,545.324909 1312.83687,477.685773 C1356.38029,384.124172 1425.6092,149.528831 1288.91734,56.1333862 C1152.22548,-37.2620586 1002.70672,153.449698 904.810049,135.391078 C806.913374,117.332458 819.465097,-40.223697 631.196042,16.1565062 C562.962444,36.5901569 495.177835,66.1496535 437.787564,56.1333862 C336.827514,38.5129286 252.95502,-31.0637016 147.530059,16.1565062 C-17.8232304,90.2188216 0.773914257,243.056258 0.773914257,333.923972 Z" id="Path-11"></path>
            </g>
        </g>
    </g>
</svg>