<?xml version="1.0" encoding="UTF-8"?>
<svg width="529px" height="599px" viewBox="0 0 529 599" version="1.1" xmlns="http://www.w3.org/2000/svg" xmlns:xlink="http://www.w3.org/1999/xlink">
    <!-- Generator: Sketch 52.6 (67491) - http://www.bohemiancoding.com/sketch -->
    <title>Group 2</title>
    <desc>Created with Sketch.</desc>
    <defs>
        <filter x="-5.8%" y="-2.0%" width="114.4%" height="109.4%" filterUnits="objectBoundingBox" id="filter-1">
            <feOffset dx="0" dy="2" in="SourceAlpha" result="shadowOffsetOuter1"></feOffset>
            <feGaussianBlur stdDeviation="2" in="shadowOffsetOuter1" result="shadowBlurOuter1"></feGaussianBlur>
            <feColorMatrix values="0 0 0 0 0   0 0 0 0 0   0 0 0 0 0  0 0 0 0.228657156 0" type="matrix" in="shadowBlurOuter1" result="shadowMatrixOuter1"></feColorMatrix>
            <feMerge>
                <feMergeNode in="shadowMatrixOuter1"></feMergeNode>
                <feMergeNode in="SourceGraphic"></feMergeNode>
            </feMerge>
        </filter>
        <filter x="-6.3%" y="-13.0%" width="112.5%" height="126.1%" filterUnits="objectBoundingBox" id="filter-2">
            <feGaussianBlur stdDeviation="10" in="SourceGraphic"></feGaussianBlur>
        </filter>
        <linearGradient x1="50%" y1="0%" x2="50%" y2="100%" id="linearGradient-3">
            <stop stop-color="#45331B" offset="0%"></stop>
            <stop stop-color="#8B572A" offset="100%"></stop>
        </linearGradient>
        <path d="M127.249321,443.434207 C130.341869,443.434207 132.46627,450.482198 139.045148,448.081022 C145.624027,445.679847 150.192842,434.08969 152.851971,434.08969 C154.624724,434.08969 157.263004,439.997262 160.766813,451.812408 C155.568701,461.268659 151.404607,470.367461 148.274531,479.108815 C143.579417,492.220846 145.782584,499.304978 139.045148,508.686184 C132.307713,518.067391 125.39138,514.876906 120.084974,511.690186 C114.778569,508.503466 113.816047,505.211403 114.977292,494.232422 C116.138537,483.253441 121.723554,471.591947 124.047754,463.223581 C126.371954,454.855215 124.156773,443.434207 127.249321,443.434207 Z" id="path-4"></path>
        <filter x="-10.8%" y="-4.9%" width="121.6%" height="112.4%" filterUnits="objectBoundingBox" id="filter-5">
            <feOffset dx="0" dy="1" in="SourceAlpha" result="shadowOffsetOuter1"></feOffset>
            <feGaussianBlur stdDeviation="1.5" in="shadowOffsetOuter1" result="shadowBlurOuter1"></feGaussianBlur>
            <feColorMatrix values="0 0 0 0 0   0 0 0 0 0   0 0 0 0 0  0 0 0 0.161090353 0" type="matrix" in="shadowBlurOuter1"></feColorMatrix>
        </filter>
        <path d="M34.7629472,490.899344 C37.7232572,488.792426 40.432724,494.959182 47.4806293,492.947037 C54.5285345,490.934892 57.9314052,485.49206 60.8018401,485.49206 C62.2339093,485.49206 64.4038613,491.374705 65.4148285,499.832414 C65.6414635,501.728432 65.6414635,505.873897 65.4148285,512.268809 C55.6757472,518.059663 48.1292856,523.692059 42.7754437,529.165996 C34.7446808,537.376902 36.2084409,540.294407 27.7269306,546.678522 C19.2454202,553.062636 11.4496265,556.72323 6.15176255,552.757243 C0.853898603,548.791255 -1.33512458,540.959158 2.11505008,531.175281 C5.56522473,521.391403 16.557329,517.977424 23.0390756,509.297136 C29.5208222,500.616848 31.8026372,493.006262 34.7629472,490.899344 Z" id="path-6"></path>
        <filter x="-7.7%" y="-5.8%" width="115.4%" height="114.5%" filterUnits="objectBoundingBox" id="filter-7">
            <feOffset dx="0" dy="1" in="SourceAlpha" result="shadowOffsetOuter1"></feOffset>
            <feGaussianBlur stdDeviation="1.5" in="shadowOffsetOuter1" result="shadowBlurOuter1"></feGaussianBlur>
            <feColorMatrix values="0 0 0 0 0   0 0 0 0 0   0 0 0 0 0  0 0 0 0.161090353 0" type="matrix" in="shadowBlurOuter1"></feColorMatrix>
        </filter>
        <linearGradient x1="67.0022512%" y1="23.7038805%" x2="-79.7994763%" y2="177.680048%" id="linearGradient-8">
            <stop stop-color="#FFD1DB" offset="0%"></stop>
            <stop stop-color="#D36F86" offset="100%"></stop>
        </linearGradient>
        <linearGradient x1="91.9333752%" y1="22.4475488%" x2="-246.998833%" y2="499.007659%" id="linearGradient-9">
            <stop stop-color="#FFD1DB" offset="0%"></stop>
            <stop stop-color="#D36F86" offset="100%"></stop>
        </linearGradient>
        <linearGradient x1="85.678971%" y1="83.3205749%" x2="15.0429792%" y2="14.3952031%" id="linearGradient-10">
            <stop stop-color="#FFFFFF" offset="0%"></stop>
            <stop stop-color="#C5EDF9" stop-opacity="0.132529438" offset="100%"></stop>
        </linearGradient>
    </defs>
    <g id="Page-1" stroke="none" stroke-width="1" fill="none" fill-rule="evenodd">
        <g id="etusivu-ei_kirjautunut-desktop" transform="translate(-846.000000, -192.000000)">
            <g id="Group-3" transform="translate(42.000000, 65.000000)">
                <g id="Group-2" filter="url(#filter-1)" transform="translate(808.000000, 129.000000)">
                    <g id="Group" transform="translate(0.000000, 178.000000)">
                        <path d="M298.011201,399.19981 C416.803275,399.19981 557.824889,299.665751 489.039808,243.963935 C420.254727,188.262118 305.162188,194.901243 186.370114,194.901243 C67.5780399,194.901243 28.4172419,141.389864 28.4172419,188.199106 C28.4172419,212.354815 68.5140075,226.626401 115.604757,282.459037 C159.767067,334.819601 240.521266,399.19981 298.011201,399.19981 Z" id="Oval-2" fill-opacity="0.181102808" fill="#000000" filter="url(#filter-2)" transform="translate(267.781843, 284.100369) rotate(-7.000000) translate(-267.781843, -284.100369) "></path>
                        <path d="M15.1843728,108.666821 L118.263442,120.170018 L187.635464,112.062269 C150.540738,107.26898 129.202308,104.520652 123.620175,103.817283 C118.038042,103.113914 105.914746,101.645946 87.2502873,99.4133782 C74.5659576,99.4133782 63.009906,100.148904 52.5821324,101.619957 C42.1543589,103.091009 29.688439,105.439964 15.1843728,108.666821 Z" id="Path-31" fill="#3B5F5F"></path>
                        <path d="M188.048752,124.390545 C202.925552,125.585315 216.562353,121.379207 228.959155,111.772221 C241.355957,102.165235 248.188756,91.126741 249.457553,78.6567388 C244.572669,109.056391 236.750793,128.566218 225.991924,137.18622 C215.233055,145.806221 199.088249,149.532459 177.557506,148.364934 L126.897972,137.18622 L188.048752,124.390545 Z" id="Path-30" fill="#D8D8D8"></path>
                        <path d="M257.311299,126.722665 C274.142494,121.294744 261.031373,43.0151774 274.726804,9.81087697 C342.830439,-3.15127352 339.95732,-3.24465435 349.729941,9.38481432 C359.502562,22.014283 370.631498,48.4242821 370.110132,85.0246871 C369.588766,121.625092 348.777607,134.821729 349.729941,137.799522 C350.682275,140.777315 399.478769,138.237018 414.271607,143.016524 C429.064445,147.79603 451.057613,155.931791 452.761201,174.167016 C454.46479,192.402241 436.927472,196.5509 436.927472,207.951685 C436.927472,219.352469 460.954173,228.840426 460.954173,248.50977 C460.954173,268.179115 441.682829,280.04255 439.801513,287.021376 C437.920196,294.000202 450.019533,308.393578 444.453369,326.822493 C438.887204,345.251408 423.714712,346.76426 419.125966,353.62897 C414.53722,360.49368 419.360194,367.997103 414.271607,376.969571 C409.183021,385.942039 393.063833,387.677882 388.510849,389.2819 C377.602645,393.124865 373.139407,398.298634 318.236879,395.988299 C287.931037,394.713009 240.480105,132.150585 257.311299,126.722665 Z" id="Path-27" fill="#3B5F5F"></path>
                        <path d="M126.980517,135.55942 C164.47583,138.199576 188.828106,137.70804 200.037345,134.084811 C216.851204,128.649969 229.513011,126.579456 243.194336,93.3328107 C256.875661,60.0861655 258.154568,27.9341821 263.879481,18.0440001 C269.604393,8.15381819 282.598244,3.95174774 292.3608,16.5973225 C302.123356,29.2428973 313.240829,55.6865765 312.720001,92.3336573 C312.199172,128.980738 291.409447,142.194204 292.3608,145.175795 C293.312153,148.157385 342.058389,145.613849 356.835991,150.39945 C371.613593,155.185051 393.584109,163.331187 395.285943,181.589667 C396.987777,199.848147 379.468522,204.002097 379.468522,215.417421 C379.468522,226.832745 403.470476,236.332801 403.470476,256.02723 C403.470476,275.721658 384.218981,287.600223 382.339602,294.587949 C380.460223,301.575675 392.547099,315.987406 386.986667,334.439823 C381.426235,352.89224 366.26937,354.407021 361.68535,361.280485 C357.10133,368.15395 361.919337,375.666942 356.835991,384.650852 C351.752646,393.634763 344.566643,396.561058 327.063137,396.561058 C319.139059,396.561058 287.064599,392.77006 223.365344,379.480155 C203.295802,375.292942 165.717022,366.576646 110.629002,353.331266 C111.54133,315.935716 112.777252,286.282969 114.336768,264.373027 C115.896285,242.463085 120.110867,199.525216 126.980517,135.55942 Z" id="Path-27" fill="#3EABAB"></path>
                        <path d="M105.712079,364.879872 C104.306914,322.904828 104.306914,290.548845 105.712079,267.811922 C107.117245,245.075 111.286948,195.849148 118.221188,120.134367 C51.0570417,109.570219 16.470787,105.992004 14.4624237,109.399722 C12.2466598,113.159349 6.27113569,164.622321 3.54683445,213.977389 C2.56718515,231.725301 2.90898633e-13,272.081212 0,284.544069 C-6.5826714e-13,312.803432 1.18227815,333.783326 3.54683445,347.483749 C24.5612479,352.762471 40.2383297,356.291584 50.57808,358.071088 C60.9178302,359.850593 79.29583,362.120187 105.712079,364.879872 Z" id="Path-28" fill="#3EABAB"></path>
                        <path d="M105.228758,365.972326 L116.964486,355.586016 L132.974154,134.96325 L187.635464,123.953588 L187.635464,111.43038 L116.964486,119.757396 C110.617127,181.741221 106.705217,228.221153 105.228758,259.197193 C103.752298,290.173232 103.752298,325.764943 105.228758,365.972326 Z" id="Path-29" fill="#3B5F5F"></path>
                    </g>
                    <g id="Group-8" transform="translate(14.000000, 0.000000)">
                        <polygon id="Path-43" fill="#FFE6EB" points="40.1224083 482.492227 42.5840174 496.34348 56.7087366 491.300407 56.7087366 475.873462"></polygon>
                        <path d="M60.3250911,247.02446 L147.037681,251.163933 L217.700497,291.934051 C213.960838,296.729627 210.848559,300.080537 208.363662,301.98678 C202.789836,306.262638 195.685949,309.441223 188.266885,311.507519 C184.293465,312.614164 178.623381,314.549007 172.580706,315.137613 C164.057328,315.96786 146.861335,315.691302 120.992725,314.30794 L112.482661,311.507519 C111.006732,297.955921 109.342852,288.559583 107.491021,283.318504 C105.63919,278.077425 89.9172132,265.97941 60.3250911,247.02446 Z" id="Path-35" fill="#3773B8"></path>
                        <path d="M117.031359,256.23141 L155.734886,266.472195 L217.116954,293.937049 C215.739206,296.132883 213.132084,298.820931 209.29559,302.001193 C203.54085,306.771586 193.627548,310.315478 185.741578,312.367109 C181.784459,313.396602 176.82933,314.743592 171.430803,314.251112 C164.353458,313.605481 151.042922,309.334814 131.499196,301.439111 C129.484651,295.610148 127.62236,290.100639 125.912322,284.910583 C124.202283,279.720528 121.241962,270.160803 117.031359,256.23141 Z" id="Path-35" fill="#4A90E2"></path>
                        <path d="M18.6409632,253.498804 C13.2081818,260.19512 12.1535308,293.54301 15.4770102,353.542472 L38.6405298,484.513042 C42.0716855,484.806149 44.5921918,484.806149 46.2020488,484.513042 C47.8119059,484.219934 52.2578335,482.951551 59.5398318,480.707893 C63.3302765,407.955369 63.3302765,350.27917 59.5398318,307.679293 C63.3302765,307.679293 66.7223473,307.679293 69.7160441,307.679293 L65.2254989,247.08509 C39.6019231,244.664584 24.0737445,246.802488 18.6409632,253.498804 Z" id="Path-33" fill="#3773B8"></path>
                        <path d="M17.6207355,251.570793 C10.1789018,261.615267 10.2587726,301.120794 14.7314099,351.614461 C17.7131681,385.276905 24.9420247,429.70823 36.4179797,484.908435 C39.6045327,485.224962 41.9916016,485.224962 43.5791866,484.908435 C45.1667716,484.591908 48.9635865,483.653558 54.9696315,482.093384 C56.34888,386.790859 55.307785,317.839657 51.8463463,275.239781 C55.307785,275.239781 60.5182239,281.100601 67.477663,292.822242 L60.1617895,245.157079 C36.7623093,242.736572 22.581958,244.874477 17.6207355,251.570793 Z" id="Path-33" fill="#4A90E2"></path>
                        <path d="M139.739746,139.228229 C138.510438,140.575411 138.510438,139.31202 139.739746,135.438055 C141.583708,129.627108 144.575951,134.437443 145.340245,121.579161 C146.10454,108.720879 137.192078,108.881863 142.085651,93.349926 C146.979223,77.8179892 157.674313,79.2428584 165.287454,61.5249462 C172.900595,43.8070339 163.266343,27.7986891 170.359027,17.6103246 C175.087482,10.8180816 186.022243,7.78766 203.163308,8.51905971 C212.823644,1.48373888 222.154667,-1.14447269 231.156379,0.63442498 C244.658946,3.30277149 255.755857,11.4115169 260.979422,19.944548 C266.202988,28.4775792 263.102249,36.0191018 269.596061,49.5268151 C276.089874,63.0345284 287.190885,57.0716647 292.641169,73.4189378 C298.091453,89.7662109 287.857101,91.8327776 290.614102,108.421213 C293.371102,125.009649 307.993327,130.613937 310.55183,139.228229 C312.257499,144.97109 308.775783,154.373237 300.106681,167.434669 L139.739746,139.228229 Z" id="Path-41" fill="url(#linearGradient-3)"></path>
                        <path d="M137.155784,266.375776 C140.742691,270.913794 143.3505,275.855568 144.97921,281.201098 C147.422276,289.219392 145.360964,293.191571 147.915179,299.617522 C150.469393,306.043472 153.251732,307.670686 156.608331,305.345474 C159.964929,303.020262 163.329218,295.555389 164.18735,288.716661 C164.759439,284.157508 163.920439,279.191684 161.670352,273.819188 C164.711135,279.149301 166.559456,282.021782 167.215314,282.43663 C168.199101,283.058901 170.243904,283.565059 167.215314,275.688264 C164.186724,267.811468 161.670352,266.375776 158.748325,263.864915 C156.800308,262.191008 153.611447,259.763809 149.181743,256.583318 L137.155784,266.375776 Z" id="Path-39" fill="#FFE6EB"></path>
                        <path d="M131.56861,436.083305 L136.560205,450.907872 L142.737344,453.287116 L149.38571,444.252148 L146.603762,429.08961 C143.634116,428.094175 140.921698,428.094175 138.466511,429.08961 C136.011323,430.085044 133.712023,432.416276 131.56861,436.083305 Z" id="Path-42" fill="#FFE6EB"></path>
                        <g id="Path-44">
                            <use fill="black" fill-opacity="1" filter="url(#filter-5)" xlink:href="#path-4"></use>
                            <use fill="#FFFFFF" fill-rule="evenodd" xlink:href="#path-4"></use>
                        </g>
                        <g id="Path-45">
                            <use fill="black" fill-opacity="1" filter="url(#filter-7)" xlink:href="#path-6"></use>
                            <use fill="#FFFFFF" fill-rule="evenodd" xlink:href="#path-6"></use>
                        </g>
                        <path d="M169.902308,113.422254 L149.391713,170.34291 C146.590745,189.732383 144.30462,203.198676 142.53334,210.741788 C140.762059,218.2849 137.637201,227.861626 133.158766,239.471967 C155.90782,260.034771 170.023875,272.64439 175.506932,277.300823 C183.731517,284.285473 185.300382,287.594488 194.247122,291.350667 C200.211615,293.854786 207.996726,294.841368 217.602454,294.310414 C218.994514,292.337249 220.199414,290.388013 221.217153,288.462704 C226.952652,277.612564 230.826688,268.932281 233.270596,261.36388 C234.935436,256.208129 237.349775,246.8431 240.774666,231.036977 C242.574917,222.728686 244.468244,211.809309 247.081658,200.586164 C247.740312,197.757617 249.230027,193.344221 251.550805,187.345978 C260.949682,185.41689 267.738559,184.365636 271.917437,184.192218 C301.277942,182.973792 306.337154,178.879454 303.100536,167.143223 C300.505686,157.73409 289.360651,144.140318 266.96306,132.137406 C255.459196,125.972464 235.737693,116.993091 216.427213,111.934844 C203.55356,108.562678 188.045258,109.058482 169.902308,113.422254 Z" id="Path-36" fill="#FFD1DB"></path>
                        <path d="M183.461594,72.3068785 C186.361185,93.8362104 202.841856,109.711357 215.427405,109.711357 C228.012953,109.711357 236.195744,98.8456111 240.381428,92.798178 C244.567111,86.7507449 249.159226,76.6664071 249.159226,52.1812446 C249.159226,27.696082 253.687471,35.6532616 231.373363,22.7538247 C217.35643,14.6508551 198.544656,17.4989066 185.743254,39.4292706 C178.165599,52.4107176 182.383424,64.3015108 183.461594,72.3068785 Z" id="Path-40" fill="#FFE6EB"></path>
                        <path d="M88.335296,234.287895 C77.6366315,225.822003 69.3378644,230.369325 64.8772097,236.225521 C60.416555,242.081717 57.9704616,272.661851 75.1923,324.546971 C80.9851302,341.999329 90.6527908,362.394959 99.9800798,380.974458 C109.139214,399.219001 126.643911,436.751317 129.070356,436.751317 C131.496801,436.751317 136.012004,435.560791 140.554751,434.40271 C143.284321,433.706861 145.974357,432.307886 148.624859,430.205784 C143.885132,406.421421 140.368318,388.375214 138.074414,376.067163 C135.233818,360.825802 132.099575,351.201645 121.896248,317.777541 C119.740141,310.714555 99.0339606,242.753787 88.335296,234.287895 Z" id="Path" fill="#3773B8"></path>
                        <path d="M85.1687446,235.382285 C74.8702886,226.916394 66.8819564,231.463716 62.5881629,237.319912 C58.2943694,243.176107 55.9397779,273.756241 72.5173931,325.641362 C78.0935289,343.09372 87.399548,363.489349 96.3779279,382.068848 C105.194443,400.313391 122.044336,437.845708 124.380014,437.845708 C126.715692,437.845708 131.017418,436.681128 135.390233,435.523047 C138.017698,434.827199 140.590182,434.081364 143.107686,433.285544 C138.608826,408.177601 135.255349,389.469604 133.047255,377.161554 C130.312917,361.920193 127.295919,352.296036 117.474271,318.871931 C115.398818,311.808946 95.4672005,243.848177 85.1687446,235.382285 Z" id="Path" fill="#4A90E2"></path>
                        <path d="M183.867518,112.176756 C175.654382,111.021527 168.451041,112.580219 162.257493,116.852831 C152.967172,123.261749 73.3368818,204.129463 73.3368818,214.794572 C73.3368818,218.460315 79.785994,228.4191 91.4544112,238.009551 C98.7635002,244.017003 114.672875,254.533256 139.182537,269.55831 L153.757007,259.839228 C142.398388,247.039193 134.142853,238.270606 128.990403,233.533468 C123.837952,228.79633 114.835698,221.698188 101.983641,212.239042 C111.472973,208.041883 118.314733,204.373002 122.508922,201.232398 C126.703112,198.091794 136.471151,188.825885 151.813041,173.434669 L183.867518,112.176756 Z" id="Path-34" fill="url(#linearGradient-8)"></path>
                        <path d="M166.570344,180.71847 C162.440986,194.853084 160.376307,205.0451 160.376307,211.294519 C160.376307,217.543937 162.440986,222.778936 166.570344,226.999516 C171.383747,233.19434 174.526966,235.210531 176,233.048089 C178.209552,229.804425 174.267711,224.242606 176,213.156604 C177.15486,205.765936 179.23841,199.062495 182.250649,193.046282 L166.570344,180.71847 Z" id="Path-38" fill="#FFE6EB"></path>
                        <path d="M282.63211,161.024877 C264.655004,156.720959 243.385624,157.545934 218.823971,163.499802 C181.981491,172.430605 162.268832,182.864612 162.268832,187.3667 C162.268832,191.868787 178.230646,203.846448 180.492144,203.846448 C181.367685,203.846448 188.697449,199.452325 203.286886,195.747205 C210.30909,193.963853 224.550875,191.170351 246.01224,187.3667 C254.953469,185.976241 261.154351,185.134171 264.614887,184.84049 C268.640703,184.498835 273.976057,184.538683 277.306162,184.191674 C294.194718,182.431821 300.640377,180.067249 301.673164,176.253452 C303.172174,170.718022 296.825156,165.64183 282.63211,161.024877 Z" id="Path-37" fill="url(#linearGradient-9)"></path>
                        <path d="M204.517436,32.2558532 C220.434099,48.2524161 231.314885,58.0680514 237.159795,61.702759 C243.004704,65.3374666 251.239176,67.4088197 261.863208,67.9168183 C264.931881,62.4511521 264.931881,55.2913339 261.863208,46.4373634 C257.260198,33.1564077 259.990636,26.7199021 245.459163,20.5866169 C230.927691,14.4533316 216.641832,15.468328 204.517436,17.6851529 C192.39304,19.9019777 186.009833,26.3180326 178.34498,42.6076556 C173.235077,53.4674043 173.235077,61.9037919 178.34498,67.9168183 L204.517436,32.2558532 Z" id="Path-32" fill="url(#linearGradient-3)"></path>
                    </g>
                    <g id="Group-5" transform="translate(201.000000, 47.000000)" stroke="#FF96AC" stroke-width="2">
                        <path d="M26.6875,15.0576923 C27.4583999,13.5053987 28.7292333,12.7292519 30.5,12.7292519 C32.2707667,12.7292519 33.5416001,13.5053987 34.3125,15.0576923" id="Line" stroke-linecap="square"></path>
                        <ellipse id="Oval-3" fill="url(#linearGradient-10)" cx="13.0714286" cy="13.3846154" rx="13.0714286" ry="13.3846154"></ellipse>
                        <ellipse id="Oval-3" fill="url(#linearGradient-10)" cx="47.9285714" cy="15.6153846" rx="13.0714286" ry="13.3846154"></ellipse>
                    </g>
                </g>
            </g>
        </g>
    </g>
</svg>