<?xml version="1.0" encoding="UTF-8"?>
<svg width="375px" height="578px" viewBox="0 0 375 578" version="1.1" xmlns="http://www.w3.org/2000/svg" xmlns:xlink="http://www.w3.org/1999/xlink">
    <!-- Generator: Sketch 50.2 (55047) - http://www.bohemiancoding.com/sketch -->
    <title>Group 3</title>
    <desc>Created with Sketch.</desc>
    <defs>
        <linearGradient x1="50%" y1="-7.07123578%" x2="62.2733765%" y2="86.8576759%" id="linearGradient-1">
            <stop stop-color="#F7F9F9" offset="0%"></stop>
            <stop stop-color="#EDF1F1" offset="100%"></stop>
        </linearGradient>
        <filter x="-17.5%" y="-3.5%" width="140.1%" height="132.7%" filterUnits="objectBoundingBox" id="filter-2">
            <feOffset dx="0" dy="1" in="SourceAlpha" result="shadowOffsetOuter1"></feOffset>
            <feGaussianBlur stdDeviation="2" in="shadowOffsetOuter1" result="shadowBlurOuter1"></feGaussianBlur>
            <feColorMatrix values="0 0 0 0 0   0 0 0 0 0   0 0 0 0 0  0 0 0 0.221637228 0" type="matrix" in="shadowBlurOuter1" result="shadowMatrixOuter1"></feColorMatrix>
            <feMerge>
                <feMergeNode in="shadowMatrixOuter1"></feMergeNode>
                <feMergeNode in="SourceGraphic"></feMergeNode>
            </feMerge>
        </filter>
        <filter x="-16.9%" y="-51.2%" width="133.9%" height="202.4%" filterUnits="objectBoundingBox" id="filter-3">
            <feGaussianBlur stdDeviation="10" in="SourceGraphic"></feGaussianBlur>
        </filter>
    </defs>
    <g id="Page-1" stroke="none" stroke-width="1" fill="none" fill-rule="evenodd">
        <g id="iPhone-8" transform="translate(0.000000, -71.000000)">
            <g id="Group-3" transform="translate(-204.000000, 69.000000)">
                <path d="M0.458883806,243.991386 C0.458883806,310.386557 -8.97359373,438.749871 59.4790773,515.867313 C127.931748,592.984756 218.350418,582.053549 289.360336,574.548064 C360.370254,567.042579 415.130283,497.932171 493.911325,490.381014 C572.692366,482.829856 560.190567,538.059481 661.980189,574.548064 C704.460971,589.776174 881.82566,620.078334 943.047665,554.866545 C1004.26967,489.654756 937.515975,398.457707 960.550591,349.03518 C992.413146,280.671641 1043.07085,109.257645 943.047665,41.0155121 C843.024476,-27.2266207 733.615308,112.122542 661.980189,98.9274789 C590.34507,85.7324162 599.529694,-29.390629 461.765299,11.8052272 C411.835903,26.7356759 362.23505,48.3341927 320.240172,41.0155121 C246.363453,28.1406057 184.990417,-22.6976085 107.846534,11.8052272 C-13.14943,65.9210394 0.458883806,177.596214 0.458883806,243.991386 Z" id="Path-11" fill="url(#linearGradient-1)"></path>
                <g id="Group" filter="url(#filter-2)" transform="translate(393.000000, 413.000000)">
                    <ellipse id="Oval-2" fill-opacity="0.145861639" fill="#000000" filter="url(#filter-3)" transform="translate(103.260223, 100.338028) rotate(-18.000000) translate(-103.260223, -100.338028) " cx="103.260223" cy="100.338028" rx="88.6133829" ry="29.2957746"></ellipse>
                    <path d="M74.4767463,40.9456832 C67.3621643,39.4110311 79.8486284,15.2970442 72.3018508,10.8427405 C64.7550731,6.38843681 55.7361421,4.07996296 48.6146552,1.53043118 C41.4931682,-1.0191006 37.7399928,-0.593707103 32.4832391,4.40994452 C27.2264855,9.41359613 27.2264855,16.0898572 28.3769161,22.8992364 C29.5273468,29.7086156 35.1320955,39.1314469 35.1320955,40.9456832 C35.1320955,42.7599194 29.227059,42.3769698 26.0934193,42.7599194 C13.9581867,44.2429179 5.87795025,45.8234421 4.78640797,49.2138251 C2.72629668,55.6126302 6.84651926,60.5553526 6.84651926,64.8538243 C6.84651926,69.152296 2.59883751e-16,71.5188333 0,77.6508049 C0,83.7827766 4.44493755,84.5755271 4.78640797,89.661702 C5.12787839,94.7478769 0,94.7478769 1.55972763,100.882825 C3.11945527,107.017772 8.0874612,107.316867 9.50629668,111.2805 C10.9251322,115.244134 3.93661426,114.796445 6.84651926,120.210647 C9.28157921,124.741346 30.7718181,139.275909 45.1424399,139.885417 C47.9447604,140.004274 49.0299403,134.528686 51.2333523,133.889578 C64.7361144,129.973052 81.5913282,42.4803352 74.4767463,40.9456832 Z" id="Path-22" fill="#F4C4CF"></path>
                    <path d="M82.7546468,34.4225352 C86.0387737,38.6954279 88.5122837,40.950181 90.1751769,41.1867946 C91.83807,41.4234082 94.4590961,40.8446955 98.0382551,39.4506564 C102.388463,41.1339907 105.514931,42.4286302 107.417661,43.3345749 C109.32039,44.2405196 114.76977,47.0235877 123.765799,51.6837791 C114.841996,56.094196 106.266148,56.8374118 98.0382551,53.9134264 C89.810362,50.9894409 84.7158259,44.4924772 82.7546468,34.4225352 Z" id="Path-23" fill="#F7B5C4"></path>
                    <path d="M97.401487,38.841206 C101.741021,36.7981149 105.196133,35.2580361 107.766824,34.2209699 C110.337514,33.1839036 113.431434,32.2745663 117.048584,31.4929577 C124.56758,34.1726417 130.120045,36.2292022 133.705977,37.6626392 C137.29191,39.0960762 142.522507,41.2502951 149.39777,44.1252957 L122.662885,52 C115.52793,47.7889028 109.965048,44.7022446 105.974238,42.7400254 C101.983428,40.7778062 99.1258447,39.4781997 97.401487,38.841206 Z" id="Path-25" fill="#F4C4CF"></path>
                    <path d="M124.498141,50.7037577 C112.342668,51.7151393 103.899974,51.7151393 99.1700583,50.7037577 C92.0751853,49.1866853 86.3654263,40.5119362 81.8883099,31.2037286 C77.4111935,21.895521 79.5993807,15.8705112 73.3796106,11.7400124 C67.1598406,7.60951358 62.5350734,9.64020638 57.292882,14.5865405 C52.0506906,19.5328747 52.0506906,26.1326583 53.1979344,32.8640353 C54.3451781,39.5954122 59.9344005,48.9103038 59.9344005,50.7037577 C59.9344005,52.4972117 54.0457222,52.1186488 50.9207633,52.4972117 C38.8191479,53.9632223 30.7612953,55.5256413 29.6727769,58.8771871 C27.6183725,65.2026931 31.7271812,70.088796 31.7271812,74.3380282 C31.7271812,78.5872603 24.8996283,80.9266886 24.8996283,86.9884178 C24.8996283,93.0501469 29.3322524,93.8338163 29.6727769,98.8617285 C30.0133013,103.889641 24.8996283,103.889641 26.4550351,109.954312 C28.010442,116.018983 32.9646855,116.314651 34.3795905,120.232881 C35.7944955,124.151111 31.4777465,127.441938 34.3795905,132.794119 C36.3141531,136.36224 39.7338701,138.48251 44.6387413,139.15493 C64.7337211,135.388004 79.2696632,132.213987 88.2465676,129.632879 C97.223472,127.051771 108.339697,123.280609 121.595243,118.319393 C121.2626,103.880283 121.2626,92.7866912 121.595243,85.0386166 C121.927886,77.290542 122.895519,65.845589 124.498141,50.7037577 Z" id="Path-22" fill="#FF96AC"></path>
                    <path d="M123.558549,51.075599 C129.599362,48.6842133 134.189205,47.0517179 137.328079,46.1781127 C140.466953,45.3045076 144.734297,44.5596907 150.130112,43.943662 C149.645588,57.7037986 149.340682,67.8766057 149.215394,74.4620834 C149.090106,81.047561 148.641835,94.3317224 147.870582,114.314567 C142.3896,116.42391 138.287647,117.836813 135.564723,118.553277 C132.8418,119.269741 127.742864,120.277803 120.267916,121.577465 C120.04948,111.85178 120.04948,104.37237 120.267916,99.139233 C120.486352,93.9060964 121.583229,77.884885 123.558549,51.075599 Z" id="Path-24" fill="#FF96AC"></path>
                    <path d="M97.401487,38.084507 L97.4521866,40.5090165 L98.7042571,40.0618803 C103.581877,42.0757689 106.780493,43.4604935 108.300105,44.216054 C109.819717,44.9716145 114.117203,47.2879508 121.192564,51.1650631 C120.381082,67.9875386 119.821396,80.6025541 119.513507,89.0101093 C119.205618,97.4176646 118.933781,107.509135 118.697995,119.28452 L120.080987,120.84507 C120.440891,103.846016 120.811417,90.811734 121.192564,81.7422257 C121.573711,72.6727175 122.187342,62.288688 123.033457,50.590137 C114.218891,45.3392151 108.005332,41.9788416 104.392781,40.5090165 C103.374914,40.0948811 102.490671,39.7270755 101.681532,39.4137167 C101.187256,39.222296 100.705311,39.0515418 100.283848,38.9019365 C99.6611897,38.6809142 98.9900894,38.4688881 98.2998699,38.290778 C98.1011705,38.2395039 97.8017095,38.1707469 97.401487,38.084507 Z" id="Path-26" fill="#F7B5C4"></path>
                </g>
            </g>
        </g>
    </g>
</svg>