<?xml version="1.0" encoding="UTF-8"?>
<svg width="16px" height="16px" viewBox="0 0 16 16" version="1.1" xmlns="http://www.w3.org/2000/svg" xmlns:xlink="http://www.w3.org/1999/xlink">
    <!-- Generator: Sketch 52.4 (67378) - http://www.bohemiancoding.com/sketch -->
    <title>icon/calendar</title>
    <desc>Created with Sketch.</desc>
    <defs>
        <path d="M1,3 L1,15 L15,15 L15,3 L1,3 Z M5,2 L11,2 L11,0 L13,0 L13,2 L16,2 L16,16 L0,16 L0,2 L3,2 L3,0 L5,0 L5,2 Z" id="path-1"></path>
        <path d="M0,0 L14,0 L14,1 L0,1 L0,0 Z M10,6 L12,6 L12,8 L10,8 L10,6 Z M6,6 L8,6 L8,8 L6,8 L6,6 Z M2,6 L4,6 L4,8 L2,8 L2,6 Z M10,3 L12,3 L12,5 L10,5 L10,3 Z M6,3 L8,3 L8,5 L6,5 L6,3 Z M2,3 L4,3 L4,5 L2,5 L2,3 Z" id="path-3"></path>
    </defs>
    <g id="Page-1" stroke="none" stroke-width="1" fill="none" fill-rule="evenodd">
        <g id="lisää-kehu-tyhjä" transform="translate(-295.000000, -616.000000)">
            <g id="input" transform="translate(147.000000, 604.000000)">
                <g id="Group">
                    <g id="icon/calendar" transform="translate(144.000000, 8.000000)">
                        <g id="outside" transform="translate(4.000000, 4.000000)">
                            <mask id="mask-2" fill="white">
                                <use xlink:href="#path-1"></use>
                            </mask>
                            <use id="Mask" fill="#8C9AAE" fill-rule="nonzero" xlink:href="#path-1"></use>
                            <g id="color/color#5" mask="url(#mask-2)" fill="#333333">
                                <g transform="translate(-4.000000, -4.000000)" id="color#5">
                                    <rect x="0" y="0" width="24" height="24"></rect>
                                </g>
                            </g>
                        </g>
                        <g id="inside" transform="translate(5.000000, 9.000000)">
                            <mask id="mask-4" fill="white">
                                <use xlink:href="#path-3"></use>
                            </mask>
                            <use id="Mask" fill="#8C9AAE" xlink:href="#path-3"></use>
                            <g id="color/color#4" mask="url(#mask-4)" fill="#CCCCCC">
                                <g transform="translate(-5.000000, -9.000000)" id="color#4">
                                    <rect x="0" y="0" width="24" height="24"></rect>
                                </g>
                            </g>
                        </g>
                    </g>
                </g>
            </g>
        </g>
    </g>
</svg>