<?xml version="1.0" encoding="UTF-8"?>
<svg width="18px" height="18px" viewBox="0 0 18 18" version="1.1" xmlns="http://www.w3.org/2000/svg" xmlns:xlink="http://www.w3.org/1999/xlink">
    <!-- Generator: Sketch 52.4 (67378) - http://www.bohemiancoding.com/sketch -->
    <title>Star</title>
    <desc>Created with Sketch.</desc>
    <g id="Page-1" stroke="none" stroke-width="1" fill="none" fill-rule="evenodd">
        <g id="kehudata-desktop" transform="translate(-1207.000000, -222.000000)" stroke="#3B5F5F" stroke-width="0.916666667">
            <g id="Group-10" transform="translate(32.000000, 216.000000)">
                <g id="Group-8">
                    <g id="Group" transform="translate(1175.000000, 6.000000)">
                        <path d="M12.0120085,6.74223377 C11.4937413,6.7445835 11.0388406,6.39970884 10.8777114,5.89294778 L9.25912297,0.667910392 C9.21739933,0.53857253 9.11157139,0.458333333 9,0.458333333 C8.88842861,0.458333333 8.78260067,0.53857253 8.74248644,0.662820153 L7.12126361,5.89621348 C6.96100377,6.40019834 6.50537958,6.74524961 5.98916015,6.74223377 L0.718431844,6.74210396 C0.613744304,6.73961187 0.512948618,6.81477523 0.474028079,6.93813371 C0.432314172,7.07034577 0.476361434,7.21515411 0.574679089,7.29017335 L4.84104283,10.5419705 C5.24905594,10.8493636 5.41808777,11.392083 5.26589455,11.8874875 L3.64042456,17.1363641 C3.61042634,17.2369102 3.62794575,17.347199 3.68542314,17.4290215 C3.73741293,17.5030322 3.81405577,17.5430008 3.89760381,17.5415668 C3.950027,17.5413076 4.00200598,17.5230552 4.05122926,17.4846498 L8.29050434,14.253982 C8.71294398,13.9335309 9.28705602,13.9335309 9.71030669,14.2545986 L13.953089,17.4879814 C13.997994,17.5230552 14.049973,17.5413076 14.1081967,17.5416322 C14.1859442,17.5430008 14.2625871,17.5030322 14.3145769,17.4290215 C14.3720542,17.347199 14.3895737,17.2369102 14.360957,17.1409088 L12.7338011,11.8865008 C12.5819122,11.392083 12.7509441,10.8493636 13.1569148,10.5435181 L17.4251282,7.29032032 C17.5236386,7.21515411 17.5676858,7.07034577 17.5259719,6.93813371 C17.4870514,6.81477523 17.3862557,6.73961187 17.2706606,6.74223377 L12.0120085,6.74223377 Z" id="Star"></path>
                    </g>
                </g>
            </g>
        </g>
    </g>
</svg>