<?xml version="1.0" encoding="UTF-8"?>
<svg width="22px" height="22px" viewBox="0 0 22 22" version="1.1" xmlns="http://www.w3.org/2000/svg" xmlns:xlink="http://www.w3.org/1999/xlink">
    <!-- Generator: Sketch 52.4 (67378) - http://www.bohemiancoding.com/sketch -->
    <title>Overrides/Icons/Icon 1</title>
    <desc>Created with Sketch.</desc>
    <g id="Page-1" stroke="none" stroke-width="1" fill="none" fill-rule="evenodd">
        <g id="lisää-kehu6" transform="translate(-209.000000, -1337.000000)" stroke="#9B9B9B" stroke-width="0.916666667">
            <g id="Overrides/Icons/Icon-1" transform="translate(209.000000, 1337.000000)">
                <path d="M14.6811083,8.13865609 C14.0929315,8.14142277 13.5757448,7.74938271 13.3922711,7.1723529 L11.4136388,0.785064929 C11.3493096,0.585652872 11.1813871,0.458333333 11,0.458333333 C10.8186129,0.458333333 10.6506904,0.585652872 10.5879707,0.779974689 L8.60670387,7.1756186 C8.4241016,7.74986592 7.90620211,8.14207923 7.32008463,8.13865609 L0.880507262,8.13852628 C0.706371503,8.13438098 0.543204549,8.25605459 0.482235633,8.44929531 C0.418473349,8.6513896 0.485932991,8.87316772 0.64064421,8.99121684 L5.85554264,12.9659795 C6.31959921,13.3155953 6.51229242,13.9342854 6.33879985,14.4990221 L4.35180728,20.9153256 C4.30627198,21.0679479 4.33281818,21.2350624 4.42106236,21.3606834 C4.50381895,21.4784924 4.62921147,21.5438836 4.76424163,21.5415434 C4.85099567,21.5411144 4.93636858,21.5111357 5.01323806,21.4511368 L10.194394,17.5026799 C10.6743154,17.1386247 11.3256846,17.1386247 11.806417,17.5032965 L16.9910802,21.4544685 C17.0636314,21.5111357 17.1490043,21.5411144 17.2415589,21.5416088 C17.3707885,21.5438836 17.4961811,21.4784924 17.5789376,21.3606834 C17.6671818,21.2350624 17.693728,21.0679479 17.6495743,20.9198703 L15.6608958,14.4980354 C15.4877076,13.9342854 15.6804008,13.3155953 16.142415,12.9675271 L21.3591631,8.99136382 C21.514067,8.87316772 21.5815267,8.6513896 21.5177644,8.44929531 C21.4567955,8.25605459 21.2936285,8.13438098 21.1085852,8.13865609 L14.6811083,8.13865609 Z" id="Star"></path>
            </g>
        </g>
    </g>
</svg>