<?xml version="1.0" encoding="UTF-8"?>
<svg width="20px" height="19px" viewBox="0 0 20 19" version="1.1" xmlns="http://www.w3.org/2000/svg" xmlns:xlink="http://www.w3.org/1999/xlink">
    <!-- Generator: Sketch 52.4 (67378) - http://www.bohemiancoding.com/sketch -->
    <title>Star</title>
    <desc>Created with Sketch.</desc>
    <g id="Page-1" stroke="none" stroke-width="1" fill="none" fill-rule="evenodd">
        <g id="kehudata-desktop" transform="translate(-1228.000000, -253.000000)" fill="#FF96AC">
            <g id="Group-10" transform="translate(32.000000, 216.000000)">
                <g id="Group-8">
                    <g id="Group-5" transform="translate(1.000000, 37.000000)">
                        <g id="Group-4">
                            <path d="M1208.34538,6.46491814 C1207.99589,6.4668038 1207.68451,6.248461 1207.5728,5.92317185 L1205.77258,0.542382114 C1205.65955,0.217964549 1205.34908,0 1205,0 C1204.65092,0 1204.34045,0.217964549 1204.22742,0.542382114 L1202.4272,5.92317185 C1202.31549,6.248461 1202.00411,6.4668038 1201.65462,6.46491814 L1195.81038,6.46491814 C1195.46314,6.45726437 1195.15128,6.67258965 1195.04104,6.99611853 C1194.9308,7.3196474 1195.04786,7.67598894 1195.32983,7.87520138 L1200.0725,11.2222639 C1200.35272,11.417739 1200.47102,11.7694557 1200.36453,12.0904378 L1198.55691,17.4951922 C1198.47923,17.7362856 1198.52436,17.9993678 1198.6782,18.2021381 C1198.83203,18.4049085 1199.07578,18.5226056 1199.33319,18.51841 C1199.50484,18.5176241 1199.67181,18.4633358 1199.81004,18.363366 L1204.51945,15.0402681 C1204.80686,14.8383976 1205.19314,14.8383976 1205.48055,15.0402681 L1210.18996,18.363366 C1210.32819,18.4633358 1210.49516,18.5176241 1210.66681,18.51841 C1210.92422,18.5226056 1211.16797,18.4049085 1211.3218,18.2021381 C1211.47564,17.9993678 1211.52077,17.7362856 1211.44309,17.4951922 L1209.63547,12.0904378 C1209.52898,11.7694557 1209.64728,11.417739 1209.9275,11.2222639 L1214.67017,7.87520138 C1214.95214,7.67598894 1215.0692,7.3196474 1214.95896,6.99611853 C1214.84872,6.67258965 1214.53686,6.45726437 1214.18962,6.46491814 L1208.34538,6.46491814 Z" id="Star"></path>
                        </g>
                    </g>
                </g>
            </g>
        </g>
    </g>
</svg>