<?xml version="1.0" encoding="UTF-8"?>
<svg width="22px" height="22px" viewBox="0 0 22 22" version="1.1" xmlns="http://www.w3.org/2000/svg" xmlns:xlink="http://www.w3.org/1999/xlink">
    <!-- Generator: Sketch 52.4 (67378) - http://www.bohemiancoding.com/sketch -->
    <title>Overrides/Cell/Add Detail</title>
    <desc>Created with Sketch.</desc>
    <g id="Page-1" stroke="none" stroke-width="1" fill="none" fill-rule="evenodd">
        <g id="lisää-kehu6" transform="translate(-40.000000, -1405.000000)" fill="#9B9B9B">
            <g id="Overrides/Cell/Add-Detail" transform="translate(40.000000, 1405.000000)">
                <path d="M11,22 C4.92486775,22 0,17.0751322 0,11 C0,4.92486775 4.92486775,0 11,0 C17.0751322,0 22,4.92486775 22,11 C22,17.0751322 17.0751322,22 11,22 Z M11,21 C16.5228475,21 21,16.5228475 21,11 C21,5.4771525 16.5228475,1 11,1 C5.4771525,1 1,5.4771525 1,11 C1,16.5228475 5.4771525,21 11,21 Z M10.5,10.5 L10.5,5.5 L11.5,5.5 L11.5,10.5 L16.5,10.5 L16.5,11.5 L11.5,11.5 L11.5,16.5 L10.5,16.5 L10.5,11.5 L5.5,11.5 L5.5,10.5 L10.5,10.5 Z" id="Contact-Add"></path>
            </g>
        </g>
    </g>
</svg>