<?xml version="1.0" encoding="UTF-8"?>
<svg width="104px" height="229px" viewBox="0 0 104 229" version="1.1" xmlns="http://www.w3.org/2000/svg" xmlns:xlink="http://www.w3.org/1999/xlink">
    <!-- Generator: Sketch 52.6 (67491) - http://www.bohemiancoding.com/sketch -->
    <title>Group 2</title>
    <desc>Created with Sketch.</desc>
    <g id="Page-1" stroke="none" stroke-width="1" fill="none" fill-rule="evenodd">
        <g id="kehuja1VALITTU" transform="translate(-173.000000, -75.000000)">
            <g id="Group-2" transform="translate(173.000000, 75.000000)">
                <path d="M60.4988495,225.612201 C68.9667974,227.059406 73.3384277,227.816298 73.6137402,227.882876 C73.8973485,227.95146 73.9981382,228.29449 73.9161092,228.911964 L56.95943,228.911964 L56.95943,225.909869 C49.9803191,199.500015 46.4907636,179.879219 46.4907636,167.047482 C46.4907636,161.487433 45.6193548,154.031729 43.8765371,144.680371 C40.640198,158.553028 38.2683059,168.83472 36.760861,175.525445 C33.8108822,188.618792 19.3005144,210.264949 8.31953582,225.838197 C16.9192214,227.247637 21.3657458,227.985571 21.6591092,228.051998 C21.9707111,228.122555 22.0264526,228.438555 21.8263337,229 L4.40894462,229 L4.86447704,225.567534 L5.33057464,225.567534 C9.95926132,198.829696 13.5812904,179.086118 16.1966619,166.336799 C18.460084,155.303149 23.6778136,130.30312 26.000611,108.424294 C26.292195,105.677815 27.5095461,101.68594 29.6526644,96.4486707 L32.0553367,96.4486707 C32.0216855,96.3297802 31.9879755,96.2107617 31.9542067,96.0916152 L61.9460652,96.0916152 C60.4766593,99.2777897 59.8530759,102.001576 60.0753151,104.262974 C62.7550109,131.530267 70.0332682,150.241592 68.9707009,161.867909 C65.5418627,199.385311 64.5461364,206.135944 60.4988495,225.612201 Z" id="Combined-Shape" fill="#4A90E2"></path>
                <path d="M67.0854921,81.0418625 C72.3290578,80.6553016 80.2235647,77.9824578 90.6561298,75.3989033 C91.0612056,75.298589 91.610707,76.5525519 92.3046339,79.1607919 C81.2363066,85.2103791 72.270793,88.3365876 65.4080932,88.5394176 C64.0376044,94.3350989 62.2668302,101.222814 60.0957708,109.202563 L25.5737705,109.202563 C26.1015267,103.812372 26.538117,98.9587692 26.8835412,94.6417553 C9.94809511,89.911083 1.0139416,83.4399161 0.0810806875,75.2282544 C-0.862452312,66.92265 6.42890898,57.2720751 21.9551646,46.2765298 C22.9021218,44.8781284 24.3590107,43.8442491 26.0759939,43.4546931 C26.0952629,43.4419124 26.1145339,43.4291355 26.1338156,43.4163569 L26.1420696,43.4400479 C26.486673,43.365471 26.8415452,43.3167926 27.2046896,43.2962491 C47.5168316,42.1471304 58.4805253,42.3524487 60.0957708,43.912204 C62.8859201,46.6065005 68.9272828,60.0088322 68.9272828,68.3755457 C68.9272828,70.9227644 68.3133526,75.1448701 67.0854921,81.0418625 Z M27.3090412,88.9269824 C27.6797736,83.488222 27.8651397,79.1404977 27.8651397,75.8838093 C27.8651397,72.5096635 26.9496715,68.0813467 25.118735,62.5988588 C14.1708487,66.2217619 8.69690556,70.4315605 8.69690556,75.2282544 C8.69690556,79.9341351 16.1343533,83.2548846 27.3090412,88.9269824 Z" id="Combined-Shape" fill="#FFFFFF"></path>
                <path d="M92.9180328,74.8792232 L94.5834565,70.4322919 C94.9648792,69.6651902 95.2904633,68.6920224 95.5602089,67.5127885 C95.8299544,66.3335546 95.8810501,64.5442856 95.713496,62.1449814 L96.5462079,62.1449814 C96.9586779,62.9011785 97.3049929,63.8407091 97.5851529,64.9635732 C97.8653128,66.0864374 98.0485402,67.2692804 98.1348349,68.5121023 L101.465535,68.5121023 C102.404419,68.5121023 103.165535,69.2732182 103.165535,70.2121023 C103.165535,70.2598747 103.163521,70.3076259 103.159499,70.3552287 L102.749652,75.2059554 C102.600901,76.9664817 101.128522,78.3197026 99.3617231,78.3197026 L93.7507447,78.3197026 L92.9180328,74.8792232 Z" id="Path-11" fill="#FF9AB0"></path>
                <path d="M33.7218686,93.5221838 L35.3872923,89.0752525 C35.768715,88.3081508 36.0942991,87.334983 36.3640446,86.1557491 C36.6337902,84.9765152 36.6848859,83.1872462 36.5173318,80.787942 L37.3500437,80.787942 C37.7625137,81.5441391 38.1088287,82.4836697 38.3889886,83.6065338 C38.6691486,84.729398 38.8523759,85.912241 38.9386707,87.1550629 L42.2693707,87.1550629 C43.2082548,87.1550629 43.9693707,87.9161788 43.9693707,88.8550629 C43.9693707,88.9028353 43.967357,88.9505865 43.963335,88.9981893 L43.5534874,93.848916 C43.404737,95.6094423 41.9323581,96.9626632 40.1655589,96.9626632 L34.5545805,96.9626632 L33.7218686,93.5221838 Z" id="Path-11" fill="#FF9AB0" transform="translate(38.845509, 88.875303) rotate(10.000000) translate(-38.845509, -88.875303) "></path>
                <g id="Group" transform="translate(29.836066, 0.000000)">
                    <path d="M2.37407687,29.9531646 C5.33058259,31.3495247 8.69184197,32.0477047 12.457855,32.0477047 C16.223868,32.0477047 21.4448505,31.3495247 28.1208024,29.9531646 C28.9192499,26.6311699 29.3184736,24.1974889 29.3184736,22.6521213 C29.3184736,21.1067538 29.3184736,16.2244879 29.3184736,8.00532365 L2.37407687,8.00532365 C1.28443965,13.4221238 0.739621039,17.5202921 0.739621039,20.2998285 C0.739621039,23.0793649 1.28443965,26.2971436 2.37407687,29.9531646 Z" id="Path-79" fill="#3B5F5F"></path>
                    <path d="M15.904332,38.3085502 C18.8811997,38.3085502 21.4631817,36.1164791 23.4905026,33.5591223 C25.7413005,30.7198613 27.2786885,27.2838741 27.2786885,22.7684209 C27.2786885,19.305326 27.1496189,11.8436375 25.7477769,9.26002466 C23.6754388,5.44067859 19.651457,7.22829169 15.904332,7.22829169 C12.7110932,7.22829169 7.55965899,6.36485877 5.4937549,9.26002466 C3.49551906,12.06036 4.52997538,18.548583 4.52997538,22.7684209 C4.52997538,31.3509973 9.62244828,38.3085502 15.904332,38.3085502 Z" id="Oval" fill="#FF9AB0"></path>
                    <path d="M4.01256044,27.2416357 C4.27821381,22.748666 4.63332165,19.3774049 5.07788393,17.1278522 C5.52244622,14.8782995 6.22291402,12.9081877 7.17928732,11.2175169 C13.4314631,12.0784924 18.0891261,12.5089802 21.1522765,12.5089802 C24.2154269,12.5089802 27.3941762,12.0784924 30.6885246,11.2175169 C29.7728922,6.58336577 28.0653056,3.37185764 25.5657645,1.58299248 C21.816453,-1.10030525 11.8407533,0.133289123 7.17928732,1.58299248 C2.51782133,3.03269584 2.3322858,5.23979554 1.16984866,9.17005657 C0.00741150891,13.1003176 2.40336871,24.4892683 2.52023363,25.1896904 C2.59814358,25.6566384 3.09558585,26.3406202 4.01256044,27.2416357 Z" id="Path-20" fill="#3B5F5F"></path>
                </g>
            </g>
        </g>
    </g>
</svg>