<?xml version="1.0" encoding="UTF-8"?>
<svg width="186px" height="231px" viewBox="0 0 186 231" version="1.1" xmlns="http://www.w3.org/2000/svg" xmlns:xlink="http://www.w3.org/1999/xlink">
    <!-- Generator: Sketch 52.6 (67491) - http://www.bohemiancoding.com/sketch -->
    <title>Group 2</title>
    <desc>Created with Sketch.</desc>
    <g id="Page-1" stroke="none" stroke-width="1" fill="none" fill-rule="evenodd">
        <g id="kehuja8_VALITTU" transform="translate(-132.000000, -75.000000)">
            <g id="Group-2" transform="translate(132.000000, 75.000000)">
                <path d="M101.408722,225.232534 C102.637643,225.617405 103.505147,225.902536 104.011233,226.087928 C111.483295,228.825126 114.726356,230.174604 114.966183,230.267036 C115.237079,230.371442 115.290875,230.710777 115.127572,231.285042 L99.6383387,229.108172 C98.894223,229.003594 98.3070385,228.422891 98.194207,227.679982 L97.9530067,226.091861 L98.2355372,225.948204 C97.2586169,225.939995 97.134886,225.92488 97.8643443,225.902859 C102.77236,201.002769 105.503717,182.32041 106.058417,169.855784 C106.554956,158.698091 101.118136,135.546465 98.2397424,130.264963 C98.0658838,130.421939 97.9252047,130.499484 97.8177052,130.497597 C93.7951161,130.426993 87.0960518,161.321439 85.9983309,169.763479 C84.2109196,183.509595 83.8813932,202.097675 85.0097517,225.527718 L85.0725576,225.650959 L85.3771242,226.98436 C85.5861933,227.899671 85.0136714,228.811161 84.0983609,229.02023 C84.0224843,229.037561 83.9455071,229.049661 83.8679726,229.056445 L68.5105162,230.400048 C68.2648668,229.881746 68.2938576,229.575395 68.5974886,229.480995 C68.8750653,229.394695 73.3000487,228.364885 81.978684,225.804999 C81.9695945,225.799114 81.9604852,225.793207 81.951356,225.787279 C74.6374965,214.952415 58.9812524,186.255706 59.2756692,169.294445 C59.5700859,152.333184 68.7506005,129.987413 78.6100705,108.935875 C79.5504276,106.928063 80.281095,103.824265 80.8020727,99.624483 L114.135774,100.209554 C113.897357,100.708152 113.661512,101.200595 113.428238,101.686882 L114.251496,101.701249 C114.188817,105.343545 114.61329,107.959043 115.524915,109.547742 C121.137111,119.328182 138.135419,156.229632 131.574574,177.952393 C125.143296,199.24616 110.244311,213.231038 101.408722,225.232534 Z" id="Combined-Shape" fill="#4A90E2" transform="translate(96.163146, 165.456765) rotate(359.000000) translate(-96.163146, -165.456765) "></path>
                <path d="M122.067926,45.9379976 C128.432398,46.0351319 134.630405,45.8122316 140.661949,45.2692965 C152.990506,44.1595298 164.060985,41.7633037 173.873385,38.080618 L175.650761,40.984551 C166.1924,46.38209 154.482752,50.4864134 140.521816,53.297521 C134.722333,54.4652775 128.859301,55.6019603 122.932721,56.7075694 C122.281671,65.361176 120.004326,76.6972454 116.941453,81.347827 C113.61225,86.4027964 112.808349,95.1854041 114.529748,107.69565 L77.4975363,108.34205 C80.5052809,95.0001453 81.9540615,85.1729943 81.8438782,78.8605967 C81.7703004,74.6453278 80.7120748,68.5626018 78.6692015,60.6124185 C67.2490477,58.4215327 56.059405,56.1228753 45.1002735,53.7164465 C31.1905249,50.6621151 19.5542902,46.3540553 10.1915696,40.7922672 L12.0193553,37.9197959 C21.7659895,41.7731707 32.7929622,44.3622384 45.1002735,45.686999 C57.1111614,46.9798525 69.8065582,47.0109911 83.1864639,45.7804147 C87.9432443,44.9440542 91.6657863,44.4369886 94.3540899,44.2592181 C109.934673,43.2289147 120.662474,44.6794874 122.014303,45.8866811 C122.032412,45.902853 122.050287,45.9199621 122.067926,45.9379976 Z" id="Combined-Shape" fill="#FFFFFF"></path>
                <g id="Group" transform="translate(95.392515, 20.702291) rotate(359.000000) translate(-95.392515, -20.702291) translate(80.892515, 0.702291)">
                    <path d="M15.0084541,39.9413919 C17.9767347,39.9413919 20.5512687,37.7531428 22.5727415,35.2002448 C24.8170468,32.3659341 26.35,28.9359377 26.35,24.4283573 C26.35,20.9713003 26.2213027,13.5226216 24.8235045,10.9435133 C22.7571442,7.13082633 18.7447701,8.91532267 15.0084541,8.91532267 C11.8244266,8.91532267 6.68785228,8.05339518 4.62790753,10.9435133 C2.63543583,13.7389662 3.66690814,20.2158768 3.66690814,24.4283573 C3.66690814,32.9959698 8.74469122,39.9413919 15.0084541,39.9413919 Z" id="Oval" fill="#FF9AB0"></path>
                    <path d="M4.09285802,18.797623 C4.52347277,16.5519925 5.20196436,14.5853157 6.12833276,12.8975925 C12.1843551,13.757067 16.6958903,14.1868042 19.6629386,14.1868042 C22.6299868,14.1868042 25.7090073,13.757067 28.9,12.8975925 C28.0130944,8.2715212 26.3590809,5.06561242 23.9379595,3.27986619 C20.3062775,0.601246857 14.0581934,-0.709374239 9.5429745,0.737801526 C5.0277556,2.18497729 1.43339925,6.93029352 0.307431975,10.853702 C-0.818535303,14.7771106 3.44693588,22.1660688 4.09285802,18.797623 Z" id="Path-20" fill="#3B5F5F"></path>
                </g>
                <path d="M0.946014274,37.0692136 L2.60663393,32.6300357 C2.98695635,31.8642714 3.31160126,30.8928004 3.58056868,29.7156225 C3.84953609,28.5384446 3.90048442,26.7522952 3.73341366,24.3571743 L4.56372349,24.3571743 C4.9750037,25.1120529 5.3203197,26.0499455 5.59967149,27.1708518 C5.87902329,28.2917582 6.0617221,29.4725389 6.14776791,30.713194 L9.46370253,30.713194 C10.4025866,30.713194 11.1637025,31.4743099 11.1637025,32.413194 C11.1637025,32.460912 11.1616934,32.5086089 11.1576805,32.5561579 L10.7497582,37.3896224 C10.6011662,39.1502876 9.1287267,40.5036945 7.36180234,40.5036945 L1.7763241,40.5036945 L0.946014274,37.0692136 Z" id="Path-11" fill="#FF9AB0" transform="translate(6.054875, 32.430434) scale(-1, 1) rotate(353.000000) translate(-6.054875, -32.430434) "></path>
                <path d="M175.196014,36.2193968 L176.856634,31.7802188 C177.236956,31.0144546 177.561601,30.0429835 177.830569,28.8658057 C178.099536,27.6886278 178.150484,25.9024784 177.983414,23.5073575 L178.813723,23.5073575 C179.225004,24.2622361 179.57032,25.2001286 179.849671,26.321035 C180.129023,27.4419414 180.311722,28.6227221 180.397768,29.8633771 L183.713703,29.8633771 C184.652587,29.8633771 185.413703,30.6244931 185.413703,31.5633771 C185.413703,31.6110952 185.411693,31.6587921 185.40768,31.7063411 L184.999758,36.5398055 C184.851166,38.3004708 183.378727,39.6538776 181.611802,39.6538776 L176.026324,39.6538776 L175.196014,36.2193968 Z" id="Path-11" fill="#FF9AB0" transform="translate(180.304875, 31.580618) rotate(353.000000) translate(-180.304875, -31.580618) "></path>
            </g>
        </g>
    </g>
</svg>