<?xml version="1.0" encoding="UTF-8"?>
<svg width="125px" height="230px" viewBox="0 0 125 230" version="1.1" xmlns="http://www.w3.org/2000/svg" xmlns:xlink="http://www.w3.org/1999/xlink">
    <!-- Generator: Sketch 52.6 (67491) - http://www.bohemiancoding.com/sketch -->
    <title>Group 2</title>
    <desc>Created with Sketch.</desc>
    <g id="Page-1" stroke="none" stroke-width="1" fill="none" fill-rule="evenodd">
        <g id="kehuja4_aktiivinen" transform="translate(-163.000000, -77.000000)">
            <g id="Group-2" transform="translate(163.000000, 75.000000)">
                <path d="M44.2166311,227.621495 C34.1104156,207.583775 15.1798193,181.932132 15.1764513,166.378627 C15.1733898,152.24038 19.0979653,131.652486 26.950178,104.614944 L50.1919055,104.619971 L63.1324862,102.570412 C61.4693062,105.759718 61.281771,108.415217 62.5698807,110.536909 C65.5710014,115.480163 70.0138694,121.097762 72.6308179,127.13104 C77.7655429,138.968958 80.420797,150.827696 83.7976867,157.690849 C88.1383017,166.512667 106.57261,187.984175 110.738214,196.348918 C111.042837,196.960616 111.746133,197.438814 111.897265,197.914676 C111.87145,197.914676 111.845904,197.914876 111.820626,197.915275 L112.272419,198.125949 C120.369141,203.577732 124.543828,206.399822 124.796482,206.592218 C125.049136,206.784614 124.971502,207.082442 124.563581,207.4857 L115.586633,203.29968 L110.612269,200.980096 C110.54184,200.947255 110.473745,200.909622 110.408465,200.867464 C109.926505,200.556217 109.654491,200.042232 109.632029,199.509538 C82.859692,184.710083 66.8936473,173.383062 61.7338952,165.528477 C57.4195205,158.960792 49.4737961,136.1467 45.9723308,136.1467 C45.8663765,136.1467 45.7606539,136.143611 45.6551628,136.137434 C42.3852272,143.134454 39.6018723,160.978009 39.794133,166.383952 C40.050474,173.591687 43.3013462,184.215437 44.7072207,196.483042 C45.4327735,202.814187 46.0694655,213.5099 46.6172966,228.570183 L46.7097068,229.818344 C46.7790294,230.754665 46.0761879,231.569901 45.1398666,231.639223 C45.0980982,231.642316 45.0562298,231.643864 45.0143471,231.643864 L29.9594584,231.643864 C29.8777742,231.052315 29.9781402,230.723689 30.2605564,230.657984 C30.528036,230.595755 35.8987627,230.590857 44.2172467,228.7434 C44.4915526,228.682479 44.4913474,228.308511 44.2166311,227.621495 Z" id="Combined-Shape" fill="#4A90E2"></path>
                <path d="M25.5102041,48.1083453 C27.1773663,59.5588823 28.0109473,68.34636 28.0109473,74.4707783 C28.0109473,80.5951966 27.1773663,91.9702385 25.5102041,108.595904 C34.312066,110.5895 40.7845615,111.586298 44.9276905,111.586298 C49.0708195,111.586298 54.7126668,110.5895 61.8532321,108.595904 C67.1989083,91.013322 69.8717463,79.6382801 69.8717463,74.4707783 C69.8717463,66.7195256 68.6350944,50.6044476 65.8242831,48.1083453 C63.9504088,46.4442771 50.5123825,46.4442771 25.5102041,48.1083453 Z" id="Path-15" fill="#EFEFEF"></path>
                <path d="M25.851731,48.5588235 C7.65727808,60.7682647 -0.933230428,71.3894444 0.0802055146,80.4223628 C1.09364146,89.4552811 11.6533133,96.3855719 31.7592209,101.213235 C32.9755142,98.8067073 33.4015711,97.5050335 33.0373915,97.3082139 C18.7133039,89.5668112 8.60303246,85.9478603 8.60303246,80.4223628 C8.60303246,74.6861425 16.3217619,69.7878835 31.7592209,65.7275857 L25.851731,48.5588235 Z" id="Path-16" fill="#EFEFEF"></path>
                <path d="M81.97418,46.0110294 C63.7797271,58.2204706 55.1892186,68.8416503 56.2026545,77.8745686 C57.2160904,86.907487 67.7757622,93.8377778 87.8816699,98.6654412 C89.0979632,96.2589131 89.52402,94.9572393 89.1598405,94.7604198 C74.8357529,87.0190171 64.7254814,83.4000662 64.7254814,77.8745686 C64.7254814,73.136096 72.5926136,65.8808554 81.2279668,60.8859237 C82.631101,60.0743114 82.8798387,55.1160133 81.97418,46.0110294 Z" id="Path-16" fill="#EFEFEF" transform="translate(72.704082, 72.338235) scale(-1, 1) rotate(1.000000) translate(-72.704082, -72.338235) "></path>
                <path d="M45.918357,97.7809867 L47.5767598,93.3446929 C47.9565745,92.5794262 48.280786,91.6085863 48.5493944,90.4321733 C48.8180027,89.2557603 48.8688831,87.4707714 48.7020353,85.0772066 L49.5312367,85.0772066 C49.9419679,85.8315948 50.2868229,86.7688779 50.5658018,87.889056 C50.8447807,89.0092342 51.0272356,90.1892477 51.1131665,91.4290966 L54.4223123,91.4290966 C55.3611963,91.4290966 56.1223122,92.1902125 56.1223122,93.1290966 C56.1223122,93.176782 56.1203058,93.2244464 56.1162984,93.2719632 L55.7092005,98.0989694 C55.5607033,99.8597179 54.0882276,101.213236 52.3212283,101.213236 L46.7475584,101.213236 L45.918357,97.7809867 Z" id="Path-11" fill="#FFD1DB" transform="translate(51.020403, 93.145221) scale(-1, 1) rotate(8.000000) translate(-51.020403, -93.145221) "></path>
                <path d="M34.0136054,98.6302516 L35.6720082,94.1939578 C36.0518229,93.4286911 36.3760344,92.4578512 36.6446428,91.2814382 C36.9132511,90.1050252 36.9641314,88.3200363 36.7972837,85.9264715 L37.6264851,85.9264715 C38.0372163,86.6808597 38.3820713,87.6181428 38.6610502,88.7383209 C38.9400291,89.858499 39.122484,91.0385126 39.2084149,92.2783615 L42.5175607,92.2783615 C43.4564447,92.2783615 44.2175606,93.0394774 44.2175606,93.9783615 C44.2175606,94.0260469 44.2155542,94.0737113 44.2115467,94.1212281 L43.8044489,98.9482343 C43.6559517,100.708983 42.183476,102.062501 40.4164767,102.062501 L34.8428068,102.062501 L34.0136054,98.6302516 Z" id="Path-11" fill="#FFD1DB" transform="translate(39.115651, 93.994486) rotate(10.000000) translate(-39.115651, -93.994486) "></path>
                <g id="Group" transform="translate(45.068027, 24.354779) scale(-1, 1) translate(-45.068027, -24.354779) translate(30.612245, 5.246324)">
                    <path d="M15.0144599,38.2169118 C17.9839283,38.2169118 20.5594924,36.0300843 22.5817742,33.4788451 C24.8269776,30.6463759 26.3605442,27.218608 26.3605442,22.7139563 C26.3605442,19.2591454 26.2317954,11.8153062 24.8334379,9.23787363 C22.7662507,5.42766387 18.752271,7.21100079 15.0144599,7.21100079 C11.8291582,7.21100079 6.6905285,6.3496333 4.62975944,9.23787363 C2.63649043,12.0315102 3.66837549,18.5042127 3.66837549,22.7139563 C3.66837549,31.2760022 8.74819049,38.2169118 15.0144599,38.2169118 Z" id="Oval" fill="#FFD1DB"></path>
                    <path d="M3.06218245,27.1764706 C3.31960429,22.6942486 3.66370874,19.3310519 4.09449581,17.0868804 C4.52528289,14.8427089 5.20404597,12.8773099 6.13078507,11.1906833 C12.1892308,12.0495993 16.7025714,12.4790573 19.6708069,12.4790573 C22.6390425,12.4790573 25.719295,12.0495993 28.9115646,11.1906833 C28.0243041,6.56761761 26.3696287,3.36379177 23.9475385,1.57920578 C20.3144033,-1.0976732 10.6478108,0.13297028 6.13078507,1.57920578 C1.61375936,3.02544129 1.43397284,5.22726135 0.307554997,9.14812075 C-0.818862848,13.0689801 1.50285317,24.4306872 1.61609692,25.1294338 C1.69159275,25.5952648 2.17362126,26.2776104 3.06218245,27.1764706 Z" id="Path-20" fill="#3B5F5F"></path>
                </g>
                <ellipse id="Oval-25" fill="#3B5F5F" transform="translate(57.073279, 6.050613) rotate(22.000000) translate(-57.073279, -6.050613) " cx="57.0732793" cy="6.05061317" rx="2.97619048" ry="4.24632353"></ellipse>
            </g>
        </g>
    </g>
</svg>