<?xml version="1.0" encoding="UTF-8"?>
<svg width="161px" height="225px" viewBox="0 0 161 225" version="1.1" xmlns="http://www.w3.org/2000/svg" xmlns:xlink="http://www.w3.org/1999/xlink">
    <!-- Generator: Sketch 52.6 (67491) - http://www.bohemiancoding.com/sketch -->
    <title>Group 2</title>
    <desc>Created with Sketch.</desc>
    <g id="Page-1" stroke="none" stroke-width="1" fill="none" fill-rule="evenodd">
        <g id="kehuja7_aktiivinen" transform="translate(-149.000000, -75.000000)">
            <g id="Group-2" transform="translate(138.000000, 75.000000)">
                <path d="M37.5112193,37.3860394 C40.7320824,36.8622981 43.4778565,37.0475027 45.7485416,37.9416532 C47.0870101,38.4687155 47.7873787,39.8442029 48.5475767,40.7662172 C48.9005518,41.1943269 49.4060811,41.7153009 50.0641644,42.3291392 C49.1178538,43.211805 47.0340076,43.01888 43.8126259,41.750364 C40.5912442,40.481848 38.4907753,39.0270732 37.5112193,37.3860394 Z" id="Path-78" fill="#3B5F5F"></path>
                <g id="Group-3" transform="translate(0.000000, 115.436426)" fill="#4A90E2">
                    <path d="M116.850323,123.106672 L117.44763,124.463961 C121.671552,133.248365 123.851934,137.782699 123.988776,138.066964 C124.125618,138.351229 123.928293,138.644414 123.396801,138.946519 C119.348505,132.990641 116.928202,129.505647 116.135893,128.491538 C114.94743,126.970375 112.281858,124.724652 112.283509,123.837263 C112.284034,123.555491 112.576605,123.232148 113.161222,122.867234 C106.232538,91.1391411 102.768196,68.4952415 102.768196,54.9355357 C102.768196,45.8790958 101.661825,27.4768942 101.887336,12.0288747 C101.962327,6.89187496 98.6887767,1.32199929 92.0666862,-4.68075229 L129.477314,-6.04107092 C126.223682,22.4494088 123.864183,43.5194055 122.398817,57.1689193 C122.019196,60.7049925 119.10129,106.249364 117.467113,113.126448 C116.792348,115.966053 116.241139,120.255457 116.850323,123.106672 Z" id="Combined-Shape" transform="translate(110.772000, 66.446376) rotate(-45.000000) translate(-110.772000, -66.446376) "></path>
                    <path d="M70.1223825,96.2497647 C70.4227038,96.3321764 70.7413555,96.4207069 71.0783378,96.5153562 L73.4010745,99.2460737 C73.7052315,99.6036549 73.6619227,100.1401 73.3043415,100.444257 C73.2516289,100.489094 73.1936381,100.527326 73.1316567,100.558104 L54.2399661,109.939124 C53.8164427,109.295052 53.7388292,108.860347 54.0071257,108.635008 C54.2754222,108.409669 59.0170634,104.971822 68.2320492,98.3214671 C67.8953684,97.872309 67.6055381,97.4753661 67.3625582,97.1306385 C66.1729037,96.7148593 64.6768737,96.1541552 62.8744684,95.4485262 C36.737495,85.0411431 22.4929916,72.5767396 20.1409582,58.0553158 C17.7889248,43.5338919 21.5182566,26.7213666 31.3289537,7.61773994 L74.724403,11.4608212 C67.0840827,15.0323409 60.7355102,18.0000243 55.6786855,20.3638714 C48.0934485,23.9096421 45.0175932,38.0530824 44.2534305,40.8814141 C42.4281985,47.6369936 42.5251723,58.1834972 45.8884475,65.4138385 C49.2517227,72.6441798 53.5597863,81.9056193 65.7062268,92.4196928 C67.90287,94.3211279 69.2824091,95.5014525 70.1223825,96.2497647 Z" id="Combined-Shape" transform="translate(47.091553, 58.774359) rotate(25.000000) translate(-47.091553, -58.774359) "></path>
                </g>
                <path d="M41.6618357,69.1834061 C42.1540952,77.603246 42.8204532,83.4483118 43.6609099,86.7186034 C44.2625824,89.0597645 46.4635618,95.4296252 47.6177458,101.670712 C48.8204415,108.174119 48.970139,114.578332 49.2272002,118.197452 C49.4004975,120.637275 48.2237928,124.583985 49.2272002,125.841397 C51.297306,128.435534 57.8658658,129.19819 64.0318916,128.705825 C69.5425504,128.265792 74.7321821,125.507526 76.0940352,124.600522 C77.4601031,123.690712 77.5554672,122.723427 78.3023035,119.368077 C79.1330764,115.63562 87.5748792,103.083042 87.5748792,89.8877999 C87.5748792,81.9404456 81.0851949,71.7426582 78.3023035,69.1834061 C76.4470426,67.4772381 64.2335533,67.4772381 41.6618357,69.1834061 Z" id="Path-15" fill="#EFEFEF"></path>
                <path d="M141.990338,86.5421484 L143.65143,82.1082965 C144.03186,81.343451 144.356597,80.3731455 144.625641,79.19738 C144.894685,78.0216145 144.945648,76.2376081 144.77853,73.8453608 L145.609075,73.8453608 C146.020473,74.5993338 146.365887,75.536101 146.645318,76.6556626 C146.924749,77.7752241 147.1075,78.9545881 147.19357,80.1937546 L150.510741,80.1937546 C151.449625,80.1937546 152.210741,80.9548706 152.210741,81.8937546 C152.210741,81.9415433 152.208726,81.9893106 152.204702,82.0369295 L151.797148,86.8588583 C151.648351,88.6193431 150.17599,89.9725086 148.409228,89.9725086 L142.820884,89.9725086 L141.990338,86.5421484 Z" id="Path-11" fill="#FFD1DB"></path>
                <g id="Group" transform="translate(61.217391, 44.561856) rotate(12.000000) translate(-61.217391, -44.561856) translate(46.763285, 25.463918)">
                    <path d="M15.012719,38.1958763 C17.9818432,38.1958763 20.5571087,36.0102525 22.579156,33.4604176 C24.8240991,30.6295074 26.3574879,27.2036262 26.3574879,22.701454 C26.3574879,19.2485447 26.228754,11.8088028 24.8305586,9.23278889 C22.7636112,5.42467635 18.7500968,7.20703169 15.012719,7.20703169 C11.8277867,7.20703169 6.68975278,6.34613832 4.62922265,9.23278889 C2.63618475,12.0248878 3.66795017,18.4940276 3.66795017,22.701454 C3.66795017,31.2587871 8.74717621,38.1958763 15.012719,38.1958763 Z" id="Oval" fill="#FFD1DB"></path>
                    <path d="M3.06182742,27.161512 C3.31921941,22.6817572 3.66328396,19.3204116 4.09402109,17.0774754 C4.52475822,14.8345391 5.20344261,12.8702219 6.13007426,11.1845237 C12.1878175,12.0429669 16.7006348,12.4721885 19.6685262,12.4721885 C22.6364176,12.4721885 25.7163131,12.0429669 28.9082126,11.1845237 C28.0210549,6.56400264 26.3665714,3.36194026 23.944762,1.57833655 C20.312048,-1.09706901 10.6465763,0.132897091 6.13007426,1.57833655 C1.61357226,3.02377602 1.43380658,5.22438414 0.307519339,9.14308541 C-0.818767907,13.0617867 1.50267893,24.41724 1.61590954,25.1156019 C1.69139662,25.5811766 2.17336925,26.2631466 3.06182742,27.161512 Z" id="Path-20" fill="#3B5F5F"></path>
                </g>
                <path d="M139.833281,96.7226997 L136.067,80.0711087 C122.318358,81.3942799 109.288633,81.3942799 96.977824,80.0711087 C84.6670153,78.7479376 73.6369091,76.1619762 63.8875052,72.3132246 L62.0592,75.1822496 C71.4245813,80.7373647 83.0641226,85.0402557 96.977824,88.0909226 C110.891525,91.1415895 125.176678,94.0188485 139.833281,96.7226997 Z" id="Path-21" fill="#EFEFEF" transform="translate(100.946241, 84.517962) scale(-1, 1) rotate(-21.000000) translate(-100.946241, -84.517962) "></path>
                <path d="M43.3623188,17.9772191 C21.046236,29.067157 10.3991092,39.1080028 11.4209384,48.0997566 C12.4427676,57.0915104 16.1776868,69.2309122 22.625696,84.5179622 C26.4977644,83.3247395 28.2899093,82.4664567 28.0021308,81.9431137 C20.0143512,67.4168428 20.0143512,53.6000735 20.0143512,48.0997566 C20.0143512,42.3896773 27.7970071,37.5137404 43.3623188,33.4719461 L43.3623188,17.9772191 Z" id="Path-16" fill="#EFEFEF" transform="translate(27.358074, 51.247591) scale(1, -1) translate(-27.358074, -51.247591) "></path>
                <path d="M26.2826637,13.6126497 L27.9437553,9.17879787 C28.3241858,8.41395236 28.6489229,7.44364686 28.9179668,6.26788134 C29.1870106,5.09211583 29.2379734,3.30810943 29.0708552,0.915862142 L29.901401,0.915862142 C30.3127981,1.66983508 30.6582122,2.60660232 30.9376434,3.72616387 C31.2170745,4.84572541 31.3998253,6.02508944 31.4858955,7.26425594 L34.8030669,7.26425594 C35.741951,7.26425594 36.5030669,8.02537187 36.5030669,8.96425594 C36.5030669,9.01204458 36.5010518,9.05981197 36.4970271,9.10743082 L36.0894738,13.9293597 C35.9406762,15.6898444 34.4683153,17.0430099 32.7015535,17.0430099 L27.1132095,17.0430099 L26.2826637,13.6126497 Z" id="Path-11" fill="#FFD1DB" transform="translate(31.392976, 8.979436) rotate(10.000000) translate(-31.392976, -8.979436) "></path>
            </g>
        </g>
    </g>
</svg>