<?xml version="1.0" encoding="UTF-8"?>
<svg width="172px" height="194px" viewBox="0 0 172 194" version="1.1" xmlns="http://www.w3.org/2000/svg" xmlns:xlink="http://www.w3.org/1999/xlink">
    <!-- Generator: Sketch 52.6 (67491) - http://www.bohemiancoding.com/sketch -->
    <title>Group 2</title>
    <desc>Created with Sketch.</desc>
    <g id="Page-1" stroke="none" stroke-width="1" fill="none" fill-rule="evenodd">
        <g id="kehuja5_aktiivinen" transform="translate(-139.000000, -85.000000)">
            <g id="Group-2" transform="translate(138.000000, 85.000000)">
                <path d="M80.8314587,8.50877193 C78.8330542,14.3145115 77.5036818,18.7460074 76.8433414,21.8032598 C76.1830011,24.8605121 75.7270507,28.6947271 75.4754902,33.3059048 C82.0596931,34.5004667 88.113261,35.0977476 93.6361939,35.0977476 C99.1591268,35.0977476 106.795893,33.5276296 116.546492,30.3873935 C114.128538,28.0539663 112.355732,25.8535683 111.228075,23.7861995 C110.100418,21.7188307 108.479442,16.6263549 106.365145,8.50877193 L80.8314587,8.50877193 Z" id="Path-77" fill="#3B5F5F"></path>
                <g id="Group-3" transform="translate(44.946078, 84.236842)" fill="#4A90E2">
                    <path d="M96.0072636,80.8217323 L96.8570325,80.656554 C97.7786666,80.4774065 98.6710264,81.0793108 98.850174,82.0009449 L99.0660293,83.1114244 C99.1302398,92.4710456 99.1522585,97.3008555 99.1320852,97.600854 C99.1119119,97.9008526 98.7533527,98.0757704 98.0564075,98.1256074 L95.2638234,83.7590076 C80.1884195,91.0396986 67.9587729,90.7249725 58.5748837,82.8148293 C47.5927278,73.5574284 49.4201629,31.1164058 42.7230755,30.0425058 C37.450398,29.1970147 35.0965369,20.6028304 35.6614923,4.25995287 L65.9903108,12.9126761 C68.533305,17.6039097 69.9047981,21.4100768 70.1047902,24.3311772 C71.5178481,44.9704193 68.0251798,56.4300735 69.9612126,62.1213002 C75.8643916,79.4744825 89.880001,77.9214886 97.074429,80.4160403 C96.4737129,80.4160403 96.1179911,80.551271 96.0072636,80.8217323 Z" id="Combined-Shape" transform="translate(67.360361, 51.207028) rotate(-8.000000) translate(-67.360361, -51.207028) "></path>
                    <path d="M63.1438182,85.7603122 L65.4170599,85.5460313 C65.8523615,85.5049988 66.2477847,85.8008943 66.3312123,86.2300923 L66.7221006,88.2410382 C66.5678836,90.8079338 66.4927925,92.6840508 66.4968274,93.8693893 C66.5147635,99.1385299 67.5285101,102.348201 67.5126654,102.571707 C67.4914741,102.870633 66.8744285,103.080574 65.6615286,103.201532 C64.789454,99.4634054 64.2012599,96.8609801 63.8969462,95.3942556 C63.1174535,91.6372737 62.7212296,89.0616503 62.61419,88.5679675 C36.8466315,97.6709858 21.6516528,94.8710778 17.0292539,80.1682434 C12.3340776,65.2339204 13.8204546,46.6359299 21.4883848,24.3742719 L43.5370956,13.6340959 C49.8615654,27.0195987 51.3996461,34.3967227 48.1513379,35.7654679 C36.606973,40.6299367 35.2954133,70.7811393 37.7523323,76.1063119 C42.2925819,85.9469342 59.0764508,83.9893182 63.839144,85.6649285 C63.5505999,85.6649285 63.3188247,85.6967231 63.1438182,85.7603122 Z" id="Combined-Shape" transform="translate(40.933160, 58.432356) rotate(20.000000) translate(-40.933160, -58.432356) "></path>
                </g>
                <path d="M66.914589,43.0330671 C76.3198583,61.9407495 81.0224929,74.6826126 81.0224929,81.2586565 C81.0224929,85.5074034 78.9996496,92.4574609 74.9539628,102.108829 C83.4681209,103.989215 89.9434979,105.032801 94.3800937,105.239586 C98.8166895,105.446372 103.373557,104.916989 108.050697,103.651438 C114.558301,87.659719 117.30498,74.8831103 116.290732,65.3216115 C114.769361,50.9793633 109.852334,45.7132365 107.076651,43.0330671 C105.226196,41.2462876 91.8388416,41.2462876 66.914589,43.0330671 Z" id="Path-15" fill="#EFEFEF" transform="translate(91.705232, 73.488066) scale(-1, 1) translate(-91.705232, -73.488066) "></path>
                <path d="M161.97549,18.6840409 L163.632279,14.2393241 C164.011724,13.4726043 164.33562,12.4999211 164.603967,11.3212745 C164.872314,10.1426278 164.923145,8.35424974 164.75646,5.95614035 L165.584854,5.95614035 C165.995186,6.71196087 166.339705,7.65102362 166.618412,8.7733286 C166.89712,9.89563359 167.079397,11.0778876 167.165244,12.3200906 L170.469815,12.3200906 C171.4087,12.3200906 172.169815,13.0812066 172.169815,14.0200906 C172.169815,14.06764 172.16782,14.1151685 172.163836,14.1625506 L171.756377,19.007727 C171.608276,20.7688234 170.135649,22.122807 168.368336,22.122807 L162.803885,22.122807 L161.97549,18.6840409 Z" id="Path-11" fill="#FFD1DB"></path>
                <path d="M2.16957759,17.7475424 L3.82636652,13.3028256 C4.20581161,12.5361059 4.52970764,11.5634227 4.79805459,10.384776 C5.06640155,9.2061293 5.11723235,7.41775127 4.950547,5.01964188 L5.77894146,5.01964188 C6.18927292,5.7754624 6.53379235,6.71452515 6.81249973,7.83683013 C7.09120712,8.95913511 7.27348448,10.1413891 7.3593318,11.3835922 L10.6639028,11.3835922 C11.6027869,11.3835922 12.3639028,12.1447081 12.3639028,13.0835922 C12.3639028,13.1311415 12.3619079,13.17867 12.3579232,13.2260522 L11.9504642,18.0712285 C11.8023634,19.832325 10.3297362,21.1863085 8.56242343,21.1863085 L2.99797206,21.1863085 L2.16957759,17.7475424 Z" id="Path-11" fill="#FFD1DB" transform="translate(7.266653, 13.102975) scale(-1, 1) rotate(-12.000000) translate(-7.266653, -13.102975) "></path>
                <g id="Group" transform="translate(91.588235, 18.293860) scale(-1, 1) translate(-91.588235, -18.293860) translate(77.171569, 0.000000)">
                    <path d="M14.9738325,36.5877193 C17.9352659,36.5877193 20.5038609,34.3967398 22.5206706,31.8406565 C24.7597987,29.0028093 26.2892157,25.5685332 26.2892157,21.0553286 C26.2892157,17.5939581 26.1608152,10.1359854 24.7662415,7.55365906 C22.7046479,3.73621491 18.7015296,5.52293783 14.9738325,5.52293783 C11.7971499,5.52293783 6.67242471,4.65993488 4.61723185,7.55365906 C2.6293564,10.3525999 3.6584493,16.837592 3.6584493,21.0553286 C3.6584493,29.6336311 8.72451892,36.5877193 14.9738325,36.5877193 Z" id="Oval" fill="#FFD1DB"></path>
                    <path d="M3.05389655,27.2280702 C3.31062183,22.7373379 3.65379518,19.3677555 4.08341659,17.119323 C4.513038,14.8708906 5.18996444,12.9017598 6.11419589,11.2119309 C12.1562481,12.0724777 16.6573762,12.5027511 19.61758,12.5027511 C22.5777839,12.5027511 25.6497016,12.0724777 28.8333333,11.2119309 C27.9484736,6.58008745 26.2982756,3.37017856 23.8827393,1.5822042 C20.2594349,-1.09975733 10.6189991,0.133222749 6.11419589,1.5822042 C1.60939272,3.03118565 1.43009268,5.23718628 0.306722789,9.16549016 C-0.816647101,13.093794 1.49878663,24.4770734 1.61172395,25.1771467 C1.6870155,25.6438622 2.1677397,26.3275034 3.05389655,27.2280702 Z" id="Path-20" fill="#3B5F5F"></path>
                </g>
                <path d="M85.1965696,51.3749956 L81.4400444,34.6826006 C67.7270143,36.0090141 54.731039,36.0090141 42.4521183,34.6826006 C30.1731976,33.3561871 19.171662,30.7638889 9.44751136,26.9057061 L7.62394194,29.7817615 C16.9650646,35.3504892 28.5744567,39.6639243 42.4521183,42.7220667 C56.3297798,45.7802091 70.5779303,48.6645188 85.1965696,51.3749956 Z" id="Path-21" fill="#EFEFEF" transform="translate(46.410256, 39.140351) rotate(12.000000) translate(-46.410256, -39.140351) "></path>
                <path d="M165.760295,54.2902766 L162.00377,37.5978816 C148.29074,38.9242951 135.294764,38.9242951 123.015844,37.5978816 C110.736923,36.271468 99.7353874,33.6791699 90.0112369,29.8209871 L88.1876674,32.6970425 C97.5287901,38.2657702 109.138182,42.5792053 123.015844,45.6373477 C136.893505,48.6954901 151.141656,51.5797997 165.760295,54.2902766 Z" id="Path-21" fill="#EFEFEF" transform="translate(126.973981, 42.055632) scale(-1, 1) rotate(12.000000) translate(-126.973981, -42.055632) "></path>
            </g>
        </g>
    </g>
</svg>