<?xml version="1.0" encoding="UTF-8"?>
<svg width="131px" height="249px" viewBox="0 0 131 249" version="1.1" xmlns="http://www.w3.org/2000/svg" xmlns:xlink="http://www.w3.org/1999/xlink">
    <!-- Generator: Sketch 52.6 (67491) - http://www.bohemiancoding.com/sketch -->
    <title>Group 2</title>
    <desc>Created with Sketch.</desc>
    <g id="Page-1" stroke="none" stroke-width="1" fill="none" fill-rule="evenodd">
        <g id="kehuja3_VALITTU" transform="translate(-160.000000, -57.000000)">
            <g id="Group-2" transform="translate(159.000000, 54.000000)">
                <path d="M68.5741811,224.644218 C79.5322708,204.292069 85.3770404,190.712623 86.10849,183.905879 C86.6619148,178.755803 72.6891705,161.737693 64.140003,162.96966 C54.5787112,169.67797 48.4294281,186.32699 48.8762344,192.183267 C49.6795079,202.711746 55.5125152,216.949344 66.3752563,234.896063 L66.6341079,235.008747 C67.4949629,235.383503 67.8890243,236.385164 67.5142685,237.246019 C67.5090791,237.257939 67.503753,237.2698 67.4982914,237.281599 C65.7223936,241.118051 64.5385139,243.854139 63.9466521,245.489864 C62.9416551,248.267368 63.2791906,248.900948 62.704598,250.141731 C62.1300053,251.382515 61.623416,251.275967 61.3660351,251.062484 C61.308454,251.014724 60.3261181,251.066288 61.9048709,244.692855 C62.2404907,243.337956 63.0666408,240.263417 64.3833211,235.469238 C54.3399483,220.560717 28.9157933,207.231262 28.9157933,187.197966 C28.9157933,172.493266 37.2797787,155.776721 51.7936815,141.517809 C52.8786667,140.451886 53.3201485,138.35068 53.1181271,135.214191 L68.6843788,138.584462 L82.9948954,135.844877 C80.8717827,140.339519 80.2539002,142.944456 81.1412479,143.659687 C99.1720867,158.193126 110.656347,169.439492 107.257573,185.803799 C105.143015,195.984903 100.530074,197.725699 93.0922251,205.540549 C84.2926873,214.786106 74.002225,223.67402 72.1558589,226.060493 C74.4996085,227.372753 76.037557,228.385765 76.7697043,229.099528 C80.5868568,232.820831 81.5678248,235.384541 81.7246144,235.5482 C81.9286946,235.761221 81.8581665,236.033823 81.5130301,236.366006 C78.5144733,233.760554 76.3475934,231.972786 75.0123904,231.002704 C73.8747414,230.176154 71.8813128,228.882793 69.0321044,227.122622 C68.995977,227.100304 68.9606986,227.076639 68.9263434,227.051679 C68.166782,226.499825 67.9984016,225.436713 68.5502553,224.677151 L68.5741811,224.644218 Z" id="Combined-Shape" fill="#4A90E2"></path>
                <path d="M56.1977441,77.4297726 C70.9933297,76.5094098 80.7032002,76.3751634 85.3273556,77.0270335 C93.6358406,68.2183281 100.774739,59.1922429 106.744052,49.9487779 C113.468751,39.5356007 118.402252,29.3217359 121.544556,19.3071838 L124.93279,19.6957069 C123.362513,30.4885651 119.383374,42.2603285 112.995373,55.0109973 C104.017694,72.9307518 99.1106969,77.8939643 93.5332494,84.9293437 C95.4566003,88.5485611 97.0465715,93.4230946 97.0465715,99.6702282 C97.0465715,107.765874 91.6311707,121.782427 80.8003692,141.719889 C77.3166796,142.489108 73.111984,142.873718 68.1862822,142.873718 C63.2605804,142.873718 58.1537463,141.491406 52.8657799,138.726784 C53.2605279,132.973991 53.6063485,128.792905 53.9032419,126.183524 C55.0636716,115.984567 56.1988079,108.130521 56.1988079,103.463561 C56.1988079,101.467972 55.9577406,99.2765734 55.4756059,96.8893662 C45.8989044,86.0549332 36.6989627,75.3070215 27.8757808,64.6456311 C18.7832274,53.6587487 12.2580026,43.0838064 8.3001065,32.9208041 L11.5141018,31.7800519 C16.8286531,40.8310671 23.9333287,49.6733548 32.8281286,58.306915 C39.7739303,65.048719 47.5638021,71.4230049 56.1977441,77.4297726 Z" id="Combined-Shape" fill="#FFFFFF"></path>
                <path d="M119.303071,14.2152267 L120.966016,9.76803298 C121.346871,9.00088599 121.671971,8.02766076 121.941315,6.84835727 C122.210659,5.66905378 122.261679,3.87967916 122.094374,1.4802334 L122.925847,1.4802334 C123.337703,2.23647511 123.683502,3.17606116 123.963245,4.29899156 C124.242989,5.42192196 124.425943,6.60483478 124.51211,7.84773004 L127.835342,7.84773004 C128.774226,7.84773004 129.535342,8.60884597 129.535342,9.54773004 C129.535342,9.59542889 129.533334,9.6431066 129.529324,9.69063661 L129.120081,14.5417222 C128.971544,16.3024366 127.499084,17.6559091 125.732115,17.6559091 L120.134543,17.6559091 L119.303071,14.2152267 Z" id="Path-11" fill="#FF9AB0" transform="translate(124.419087, 9.568071) rotate(-31.000000) translate(-124.419087, -9.568071) "></path>
                <g id="Group" transform="translate(57.136905, 32.351351)">
                    <path d="M15.0294743,41.7162162 C18.0019122,41.7162162 20.5800519,39.5240157 22.604356,36.9665081 C24.8518045,34.1270795 26.3869048,30.6908896 26.3869048,26.1751699 C26.3869048,22.7118706 26.2580272,15.2497419 24.8582713,12.6659765 C22.789017,8.84640505 18.7710233,10.6341236 15.0294743,10.6341236 C11.8409874,10.6341236 6.69721902,9.77063977 4.6343892,12.6659765 C2.63912692,15.4664771 3.67204387,21.955083 3.67204387,26.1751699 C3.67204387,34.7582528 8.75693868,41.7162162 15.0294743,41.7162162 Z" id="Oval" fill="#FF9AB0"></path>
                    <path d="M3.06524463,30.6486486 C3.32292389,26.1554138 3.66737245,22.7839537 4.09859031,20.5342683 C4.52980817,18.2845829 5.20925002,16.3143549 6.13691586,14.6235842 C14.3590388,15.9440599 19.8157013,16.2741788 22.5069034,15.613941 C23.5578153,15.3561188 24.3863844,14.4937326 25.0371533,13.2861002 C25.3044593,12.7900603 26.0664381,19.8159645 26.2768345,19.2213966 C26.3619355,18.9809063 26.8664029,17.4650475 26.832252,15.613941 C26.7870152,13.1619379 26.1897607,10.2227981 26.2768345,9.87217157 C27.0856665,6.61518999 27.2998169,2.77908624 27.2998169,0.579233346 C24.7187075,0.901251693 23.3272461,5.03140442 19.6904777,2.34794834 C16.358339,-0.110731164 11.5499742,2.93567605 7.289985,4.57841861 C6.90052968,4.72860087 5.98890405,0.208353127 5.61016228,0.32979301 C5.50753081,0.362700797 4.79508272,1.98820491 4.84264685,3.31124097 C4.87968242,4.34141622 5.68403236,5.14112013 5.61016228,5.16785236 C1.59929735,6.61931075 1.3898853,8.80419306 0.307862552,12.5760031 C-0.819681711,16.5064961 1.50435602,27.8961189 1.61771301,28.5965823 C1.69328434,29.0635578 2.17579488,29.74758 3.06524463,30.6486486 Z" id="Path-20" fill="#3B5F5F"></path>
                </g>
                <path d="M2.95383841,27.7386491 L4.61678387,23.2914554 C4.99763895,22.5243084 5.32273855,21.5510832 5.59208267,20.3717797 C5.86142679,19.1924762 5.91244647,17.4031016 5.74514172,15.0036558 L6.57661445,15.0036558 C6.98847068,15.7598975 7.33427031,16.6994836 7.61401336,17.822414 C7.89375641,18.9453444 8.07671109,20.1282572 8.16287742,21.3711525 L11.4861095,21.3711525 C12.4249935,21.3711525 13.1861095,22.1322684 13.1861095,23.0711525 C13.1861095,23.1188513 13.1841019,23.166529 13.1800923,23.214059 L12.7708484,28.0651446 C12.6223123,29.825859 11.1498514,31.1793315 9.38288285,31.1793315 L3.78531114,31.1793315 L2.95383841,27.7386491 Z" id="Path-11" fill="#FF9AB0" transform="translate(8.069855, 23.091494) scale(-1, 1) rotate(-24.000000) translate(-8.069855, -23.091494) "></path>
            </g>
        </g>
    </g>
</svg>