<?xml version="1.0" encoding="UTF-8"?>
<svg width="247px" height="200px" viewBox="0 0 247 200" version="1.1" xmlns="http://www.w3.org/2000/svg" xmlns:xlink="http://www.w3.org/1999/xlink">
    <!-- Generator: Sketch 52.6 (67491) - http://www.bohemiancoding.com/sketch -->
    <title>Group 2</title>
    <desc>Created with Sketch.</desc>
    <g id="Page-1" stroke="none" stroke-width="1" fill="none" fill-rule="evenodd">
        <g id="kehuja2_aktiivinen" transform="translate(-102.000000, -96.000000)">
            <g id="Group-2" transform="translate(102.000000, 94.000000)">
                <path d="M139.871506,198.632416 C139.871506,171.633086 139.871506,151.891364 139.871506,139.407251 C139.871506,130.061114 136.336766,116.938263 129.267287,100.0387 C128.383533,97.9260901 125.302037,95.9164829 120.0228,94.0098785 C109.107858,92.7954476 89.0691883,95.9056984 80.6036075,94.9968005 C73.6605031,94.2513616 53.7467387,89.1887219 38.1776406,82.7097845 C30.0861677,79.3425923 23.5578472,70.369766 16.5356192,69.0759436 C16.2658198,67.806637 16.13092,67.1719837 16.13092,67.1719837 C44.3497269,68.429888 64.8713706,69.0648235 77.6958511,69.07679 C90.5203316,69.0887566 108.467114,67.7093714 131.536199,64.9386346 L134.41219,83.5915699 L154.798879,79.8088868 C159.203319,112.126803 160.613873,134.233299 159.030544,146.128375 C156.834932,162.62335 147.730003,178.702092 143.321769,198.753765 C151.77567,200.14175 156.13987,200.867628 156.414368,200.9314 C156.696759,200.997005 156.797115,201.325135 156.715439,201.915788 L139.831597,201.915788 L139.831597,198.632416 L139.871506,198.632416 Z" id="Combined-Shape" fill="#4A90E2"></path>
                <path d="M18.7138829,71.0291266 L18.4299478,69.5865416 C18.2486334,68.6653326 17.3548616,68.0655295 16.4336526,68.2468439 C16.3916765,68.2551058 16.3500273,68.2649492 16.3087938,68.2763531 C12.178027,69.4188022 9.13304198,70.0626568 7.17383869,70.2079169 C5.32090193,70.3452982 3.48277199,70.1076139 1.65944887,69.4948642 L1.65943585,69.4949029 C1.21447103,69.3453671 0.732533059,69.5848597 0.582997264,70.0298245 C0.548095481,70.1336796 0.533602133,70.2433032 0.540315086,70.3526602 C0.577969997,70.9660759 0.699085217,71.2607178 0.903660747,71.236586 C1.13388893,71.2094281 4.63667485,72.6484636 10.6325214,72.7739445 C12.1101157,72.8048676 14.5905108,72.3983895 18.0737066,71.5545102 L18.7138829,71.0291266 Z" id="Path-17" fill="#4A90E2"></path>
                <path d="M145.769709,40.1813758 C150.222347,51.1885783 152.448666,60.1379389 152.448666,67.0294575 C152.448666,74.3578103 150.304095,88.8909052 146.014953,110.628742 C155.9285,112.730005 163.136202,112.156497 167.63806,108.908217 C174.390848,104.035797 192.361471,75.0618928 192.361471,65.7869034 C192.361471,56.511914 182.048026,41.0502074 179.269862,38.0634227 C177.486205,36.1458255 166.793675,36.0749529 147.192273,37.8508048 L147.192272,37.8507927 C146.257211,37.9355076 145.567869,38.7621993 145.652584,39.6972605 C145.667646,39.8635074 145.707111,40.0266296 145.769709,40.1813758 Z" id="Path-15" fill="#EFEFEF" transform="translate(168.628811, 74.218407) rotate(70.000000) translate(-168.628811, -74.218407) "></path>
                <path d="M215.820387,57.0582499 C197.50641,69.2112236 188.859469,79.7832815 189.879562,88.7744235 C190.899656,97.7655654 201.528696,104.663804 221.766684,109.46914 C222.990968,107.073742 223.419823,105.778088 223.053251,105.582179 C208.635066,97.8765798 198.458378,94.2743661 198.458378,88.7744235 C198.458378,83.0647327 204.245714,72.4926749 215.820387,57.0582499 Z" id="Path-16" fill="#EFEFEF" transform="translate(206.489391, 83.263695) rotate(-42.000000) translate(-206.489391, -83.263695) "></path>
                <path d="M235.965636,88.2337388 L237.623906,83.8001886 C238.00369,83.0353952 238.327875,82.0651557 238.596462,80.8894702 C238.865049,79.7137846 238.915925,77.9298996 238.749091,75.5378151 L239.578226,75.5378151 C239.988924,76.2917368 240.333752,77.2284403 240.612708,78.3479256 C240.891665,79.467411 241.074105,80.6466948 241.160029,81.885777 L244.468677,81.885777 C245.407561,81.885777 246.168677,82.6468929 246.168677,83.585777 C246.168677,83.633488 246.166669,83.6811779 246.162657,83.72872 L245.755844,88.5497516 C245.607272,90.3104348 244.134825,91.6638655 242.367885,91.6638655 L236.794771,91.6638655 L235.965636,88.2337388 Z" id="Path-11" fill="#FFD1DB"></path>
                <path d="M116.50901,14.176156 L118.16728,9.74260579 C118.547064,8.97781233 118.87125,8.00757284 119.139836,6.83188733 C119.408423,5.65620182 119.4593,3.87231681 119.292465,1.4802323 L120.1216,1.4802323 C120.532298,2.23415394 120.877126,3.17085744 121.156082,4.29034281 C121.435039,5.40982817 121.617479,6.58911195 121.703403,7.82819414 L125.012052,7.82819414 C125.950936,7.82819414 126.712052,8.58931006 126.712052,9.52819414 C126.712052,9.57590519 126.710043,9.62359509 126.706031,9.67113718 L126.299218,14.4921688 C126.150647,16.252852 124.678199,17.6062827 122.911259,17.6062827 L117.338145,17.6062827 L116.50901,14.176156 Z" id="Path-11" fill="#FFD1DB" transform="translate(121.610642, 9.543258) scale(-1, 1) rotate(-24.000000) translate(-121.610642, -9.543258) "></path>
                <g id="Group" transform="translate(218.568606, 34.195989) rotate(35.000000) translate(-218.568606, -34.195989) translate(202.017059, 11.704392)">
                    <path d="M19.2312034,44.1344538 C22.1952839,44.1344538 24.7661749,41.9489787 26.7847874,39.3993173 C29.0259169,36.5685997 30.556701,33.1429517 30.556701,28.6410858 C30.556701,25.1884115 30.4281858,17.7491758 29.0323655,15.1733371 C26.9689291,11.3654837 22.9622325,13.1477178 19.2312034,13.1477178 C16.0516813,13.1477178 10.9223752,12.286883 8.8653453,15.1733371 C6.87569295,17.9652461 7.90570573,24.4339456 7.90570573,28.6410858 C7.90570573,37.1978366 12.9763037,44.1344538 19.2312034,44.1344538 Z" id="Oval" fill="#FFD1DB"></path>
                    <path d="M7.30061258,33.1008403 C7.55756734,28.6213903 7.90104744,25.2602735 8.33105288,23.0174898 C8.76105832,20.7747062 9.43858984,18.8105226 10.3636474,17.1249391 C16.4111005,17.9833239 20.9162519,18.4125163 23.8791018,18.4125163 C26.8419517,18.4125163 29.9166153,17.9833239 33.1030928,17.1249391 C32.2174421,12.5047325 30.565769,9.30288798 28.1480736,7.51940563 C24.5215304,4.84418211 14.8724773,6.07406452 10.3636474,7.51940563 C5.85481756,8.96474674 5.67535725,11.1652051 4.55098321,15.0836398 C3.42660918,19.0020744 5.7441126,30.356755 5.85715087,31.0550695 C5.93250972,31.5206124 6.41366362,32.2025361 7.30061258,33.1008403 Z" id="Path-20" fill="#3B5F5F"></path>
                    <ellipse id="Oval-2" fill="#3B5F5F" transform="translate(6.545823, 6.087159) rotate(43.000000) translate(-6.545823, -6.087159) " cx="6.54582299" cy="6.08715896" rx="4.66838488" ry="3.81932773"></ellipse>
                </g>
                <path d="M199.011556,50.0354461 L195.580613,34.8416415 C195.392934,34.0105124 194.618972,33.4467018 193.77033,33.5228986 C180.589628,34.7063504 168.075817,34.6603802 156.228896,33.3849881 C143.939,32.061907 132.927631,29.4761216 123.194788,25.6276319 L121.369588,28.4964616 C130.719061,34.0511988 142.33883,38.353797 156.228896,41.4042563 C170.118963,44.4547156 184.379849,47.3317789 199.011556,50.0354461 Z" id="Path-21" fill="#EFEFEF" transform="translate(160.190572, 37.831539) rotate(12.000000) translate(-160.190572, -37.831539) "></path>
            </g>
        </g>
    </g>
</svg>