<?xml version="1.0" encoding="UTF-8"?>
<svg width="131px" height="249px" viewBox="0 0 131 249" version="1.1" xmlns="http://www.w3.org/2000/svg" xmlns:xlink="http://www.w3.org/1999/xlink">
    <!-- Generator: Sketch 52.6 (67491) - http://www.bohemiancoding.com/sketch -->
    <title>Group 2</title>
    <desc>Created with Sketch.</desc>
    <g id="Page-1" stroke="none" stroke-width="1" fill="none" fill-rule="evenodd">
        <g id="kehuja3_aktiivinen" transform="translate(-160.000000, -57.000000)">
            <g id="Group-2" transform="translate(153.000000, 54.000000)">
                <path d="M74.5741811,224.644218 C85.5322708,204.292069 91.3770404,190.712623 92.10849,183.905879 C92.6619148,178.755803 78.6891705,161.737693 70.140003,162.96966 C60.5787112,169.67797 54.4294281,186.32699 54.8762344,192.183267 C55.6795079,202.711746 61.5125152,216.949344 72.3752563,234.896063 L72.6341079,235.008747 C73.4949629,235.383503 73.8890243,236.385164 73.5142685,237.246019 C73.5090791,237.257939 73.503753,237.2698 73.4982914,237.281599 C71.7223936,241.118051 70.5385139,243.854139 69.9466521,245.489864 C68.9416551,248.267368 69.2791906,248.900948 68.704598,250.141731 C68.1300053,251.382515 67.623416,251.275967 67.3660351,251.062484 C67.308454,251.014724 66.3261181,251.066288 67.9048709,244.692855 C68.2404907,243.337956 69.0666408,240.263417 70.3833211,235.469238 C60.3399483,220.560717 34.9157933,207.231262 34.9157933,187.197966 C34.9157933,172.493266 43.2797787,155.776721 57.7936815,141.517809 C58.8786667,140.451886 59.3201485,138.35068 59.1181271,135.214191 L74.6843788,138.584462 L88.9948954,135.844877 C86.8717827,140.339519 86.2539002,142.944456 87.1412479,143.659687 C105.172087,158.193126 116.656347,169.439492 113.257573,185.803799 C111.143015,195.984903 106.530074,197.725699 99.0922251,205.540549 C90.2926873,214.786106 80.002225,223.67402 78.1558589,226.060493 C80.4996085,227.372753 82.037557,228.385765 82.7697043,229.099528 C86.5868568,232.820831 87.5678248,235.384541 87.7246144,235.5482 C87.9286946,235.761221 87.8581665,236.033823 87.5130301,236.366006 C84.5144733,233.760554 82.3475934,231.972786 81.0123904,231.002704 C79.8747414,230.176154 77.8813128,228.882793 75.0321044,227.122622 C74.995977,227.100304 74.9606986,227.076639 74.9263434,227.051679 C74.166782,226.499825 73.9984016,225.436713 74.5502553,224.677151 L74.5741811,224.644218 Z" id="Combined-Shape" fill="#4A90E2"></path>
                <path d="M54.625,77.9376525 C59.6742053,88.4969176 62.1988079,97.0055538 62.1988079,103.463561 C62.1988079,108.130521 61.0636716,115.984567 59.9032419,126.183524 C59.6063485,128.792905 59.2605279,132.973991 58.8657799,138.726784 C64.1537463,141.491406 69.2605804,142.873718 74.1862822,142.873718 C79.111984,142.873718 83.3166796,142.489108 86.8003692,141.719889 C97.6311707,121.782427 103.046571,107.765874 103.046571,99.6702282 C103.046571,87.5267598 97.0388032,80.5697142 94.2528059,77.9376525 C92.3954743,76.1829447 79.1862057,76.1829447 54.625,77.9376525 Z" id="Path-15" fill="#EFEFEF"></path>
                <path d="M125.303071,14.2152267 L126.966016,9.76803298 C127.346871,9.00088599 127.671971,8.02766076 127.941315,6.84835727 C128.210659,5.66905378 128.261679,3.87967916 128.094374,1.4802334 L128.925847,1.4802334 C129.337703,2.23647511 129.683502,3.17606116 129.963245,4.29899156 C130.242989,5.42192196 130.425943,6.60483478 130.51211,7.84773004 L133.835342,7.84773004 C134.774226,7.84773004 135.535342,8.60884597 135.535342,9.54773004 C135.535342,9.59542889 135.533334,9.6431066 135.529324,9.69063661 L135.120081,14.5417222 C134.971544,16.3024366 133.499084,17.6559091 131.732115,17.6559091 L126.134543,17.6559091 L125.303071,14.2152267 Z" id="Path-11" fill="#FFD1DB" transform="translate(130.419087, 9.568071) rotate(-31.000000) translate(-130.419087, -9.568071) "></path>
                <g id="Group" transform="translate(63.136905, 32.351351)">
                    <path d="M15.0294743,41.7162162 C18.0019122,41.7162162 20.5800519,39.5240157 22.604356,36.9665081 C24.8518045,34.1270795 26.3869048,30.6908896 26.3869048,26.1751699 C26.3869048,22.7118706 26.2580272,15.2497419 24.8582713,12.6659765 C22.789017,8.84640505 18.7710233,10.6341236 15.0294743,10.6341236 C11.8409874,10.6341236 6.69721902,9.77063977 4.6343892,12.6659765 C2.63912692,15.4664771 3.67204387,21.955083 3.67204387,26.1751699 C3.67204387,34.7582528 8.75693868,41.7162162 15.0294743,41.7162162 Z" id="Oval" fill="#FFD1DB"></path>
                    <path d="M3.06524463,30.6486486 C3.32292389,26.1554138 3.66737245,22.7839537 4.09859031,20.5342683 C4.52980817,18.2845829 5.20925002,16.3143549 6.13691586,14.6235842 C14.3590388,15.9440599 19.8157013,16.2741788 22.5069034,15.613941 C23.5578153,15.3561188 24.3863844,14.4937326 25.0371533,13.2861002 C25.3044593,12.7900603 26.0664381,19.8159645 26.2768345,19.2213966 C26.3619355,18.9809063 26.8664029,17.4650475 26.832252,15.613941 C26.7870152,13.1619379 26.1897607,10.2227981 26.2768345,9.87217157 C27.0856665,6.61518999 27.2998169,2.77908624 27.2998169,0.579233346 C24.7187075,0.901251693 23.3272461,5.03140442 19.6904777,2.34794834 C16.358339,-0.110731164 11.5499742,2.93567605 7.289985,4.57841861 C6.90052968,4.72860087 5.98890405,0.208353127 5.61016228,0.32979301 C5.50753081,0.362700797 4.79508272,1.98820491 4.84264685,3.31124097 C4.87968242,4.34141622 5.68403236,5.14112013 5.61016228,5.16785236 C1.59929735,6.61931075 1.3898853,8.80419306 0.307862552,12.5760031 C-0.819681711,16.5064961 1.50435602,27.8961189 1.61771301,28.5965823 C1.69328434,29.0635578 2.17579488,29.74758 3.06524463,30.6486486 Z" id="Path-20" fill="#3B5F5F"></path>
                </g>
                <path d="M138.055121,67.4665784 C147.999886,67.7062894 152.662534,62.9966004 152.333731,61.5401399 C152.114529,60.5691663 147.951305,58.6184958 139.844057,55.6881284 C126.08007,57.0152811 113.035802,57.0152811 100.711254,55.6881284 C88.3867054,54.3609757 77.3442888,51.7672329 67.5840039,47.9069002 L65.7536582,50.7845582 C75.1294919,56.3563892 86.7820238,60.6722279 100.711254,63.7320745 C121.605099,68.3218444 128.110355,67.2268675 138.055121,67.4665784 Z" id="Path-21" fill="#EFEFEF" transform="translate(109.051812, 57.691153) scale(-1, 1) rotate(-309.000000) translate(-109.051812, -57.691153) "></path>
                <path d="M78.1432205,76.5090183 L74.3727363,59.8073213 C60.6087495,61.134474 47.5644819,61.134474 35.2399335,59.8073213 C22.9153851,58.4801686 11.8729685,55.8864259 2.11268355,52.0260931 L0.282337864,54.9037512 C9.65817158,60.4755821 21.3107035,64.7914209 35.2399335,67.8512675 C49.1691636,70.9111141 63.4702592,73.797031 78.1432205,76.5090183 Z" id="Path-21" fill="#EFEFEF" transform="translate(39.212779, 64.267556) rotate(38.000000) translate(-39.212779, -64.267556) "></path>
                <path d="M8.95383841,27.7386491 L10.6167839,23.2914554 C10.9976389,22.5243084 11.3227386,21.5510832 11.5920827,20.3717797 C11.8614268,19.1924762 11.9124465,17.4031016 11.7451417,15.0036558 L12.5766144,15.0036558 C12.9884707,15.7598975 13.3342703,16.6994836 13.6140134,17.822414 C13.8937564,18.9453444 14.0767111,20.1282572 14.1628774,21.3711525 L17.4861095,21.3711525 C18.4249935,21.3711525 19.1861095,22.1322684 19.1861095,23.0711525 C19.1861095,23.1188513 19.1841019,23.166529 19.1800923,23.214059 L18.7708484,28.0651446 C18.6223123,29.825859 17.1498514,31.1793315 15.3828828,31.1793315 L9.78531114,31.1793315 L8.95383841,27.7386491 Z" id="Path-11" fill="#FFD1DB" transform="translate(14.069855, 23.091494) scale(-1, 1) rotate(-24.000000) translate(-14.069855, -23.091494) "></path>
            </g>
        </g>
    </g>
</svg>