<?xml version="1.0" encoding="UTF-8"?>
<svg width="159px" height="223px" viewBox="0 0 159 223" version="1.1" xmlns="http://www.w3.org/2000/svg" xmlns:xlink="http://www.w3.org/1999/xlink">
    <!-- Generator: Sketch 52.6 (67491) - http://www.bohemiancoding.com/sketch -->
    <title>Group 2</title>
    <desc>Created with Sketch.</desc>
    <g id="Page-1" stroke="none" stroke-width="1" fill="none" fill-rule="evenodd">
        <g id="kehuja9_aktiivinen" transform="translate(-153.000000, -76.000000)">
            <g id="Group-2" transform="translate(134.000000, 75.000000)">
                <g id="Group-3" transform="translate(0.000000, 107.187500)" fill="#4A90E2">
                    <path d="M122.595154,130.463159 L123.193808,131.825243 C127.415623,140.6145 129.594917,145.15134 129.731691,145.435762 C129.868465,145.720184 129.670567,146.013854 129.137995,146.316773 C125.089364,140.358736 122.668788,136.872528 121.876269,135.858149 C120.68749,134.336582 118.020096,132.091134 118.022598,131.202845 C118.023394,130.920185 118.31796,130.595456 118.906295,130.228655 C111.973971,98.4231522 108.50781,75.7245115 108.50781,62.1327332 C108.50781,53.0560507 107.777284,38.3379247 108.002855,22.8553764 C108.077866,17.7068947 105.226486,13.738431 99.448717,10.9499853 L135.22402,1.01983442 C131.969524,29.5739947 129.609398,50.6910862 128.143643,64.3711088 C127.763921,67.9150856 124.84524,113.561256 123.21063,120.453711 C122.53514,123.30196 121.98344,127.605595 122.595154,130.463159 Z" id="Combined-Shape" transform="translate(117.336368, 73.669302) rotate(-45.000000) translate(-117.336368, -73.669302) "></path>
                    <path d="M74.1593907,99.7329038 C74.8572004,100.076114 76.3748826,101.210444 78.7124375,103.135894 L81.0406311,105.875652 C81.344619,106.233377 81.3010564,106.769801 80.9433314,107.073789 C80.8907031,107.118511 80.8328205,107.156653 80.7709635,107.18737 L61.8736393,116.571518 C61.4493433,115.925922 61.3713425,115.490349 61.6396369,115.2648 C61.9079313,115.03925 66.6499582,111.5987 75.8657175,104.94315 C73.5597331,103.340344 71.6669252,102.369852 70.1872938,102.031673 C70.0587248,102.002288 69.9552525,101.967737 69.8745312,101.928747 C39.8662913,95.748109 23.6940223,85.431451 21.3577241,70.9787734 C19.0050663,56.4248919 24.870181,37.4422593 38.9530684,14.0308756 L64.9367539,7.78984527 C72.7358782,20.3736747 74.1063567,27.8501547 69.0481894,30.2192854 C65.4637676,31.8981472 67.2388997,31.0701684 60.951491,33.9958463 C54.6640824,36.9215242 42.6146696,55.4471949 49.531358,70.2840428 C56.4480463,85.1208907 61.1898034,88.4847999 73.3394688,99.022374 C73.6265193,99.2713369 73.8996203,99.5079648 74.1593907,99.7329038 Z" id="Combined-Shape" transform="translate(51.047284, 62.181323) rotate(25.000000) translate(-51.047284, -62.181323) "></path>
                </g>
                <path d="M87.6361301,57.4461702 C99.0412178,52.2781906 109.380049,46.4301256 118.652623,39.9019751 C128.779837,32.7721337 137.173046,25.1564242 143.832248,17.0548465 L146.825784,18.6831457 C141.331655,28.0942511 133.239526,37.510516 122.549396,46.9319404 C114.59219,53.9447842 106.408252,60.9732114 97.9975802,68.017222 C101.540457,73.252247 104.976013,79.692005 104.976013,84.9432325 C104.976013,94.1777601 99.1882326,108.78188 87.6126721,128.755593 C82.5921211,128.25553 77.9330374,127.792614 73.635421,127.366844 C69.3378045,126.941075 63.2799941,125.618871 55.4619897,123.400233 C61.6656891,115.864472 64.7675388,106.969051 64.7675388,96.7139683 C64.7675388,91.0906059 63.5609276,84.7200016 61.1477052,77.6021554 L61.0800981,78.1326667 C40.3260566,70.0942235 29.5909255,61.5543495 28.8747048,52.5130449 C28.158484,43.4717402 33.2459455,33.4522084 44.1370891,22.4544495 C47.6450998,24.7129675 49.2375663,25.9736443 48.9144887,26.23648 C36.2070429,36.574461 36.1666423,47.3836562 38.0813117,52.5135055 C38.9901702,54.9485511 44.1398686,56.9191467 53.530407,58.4252924 C71.1486398,56.9384364 82.5172142,56.6120624 87.6361301,57.4461702 Z" id="Combined-Shape" fill="#EFEFEF"></path>
                <path d="M144.795442,13.7731439 L146.456974,9.3293817 C146.837506,8.56282665 147.162329,7.59035236 147.431444,6.41195883 C147.70056,5.2335653 147.751536,3.44557137 147.584373,1.04797703 L148.41514,1.04797703 C148.826646,1.80363522 149.172152,2.74249628 149.451657,3.86456022 C149.731162,4.98662416 149.913962,6.16862425 150.000055,7.41056048 L153.318904,7.41056048 C154.257788,7.41056048 155.018904,8.17167641 155.018904,9.11056048 C155.018904,9.15825562 155.016897,9.20592963 155.012888,9.25345597 L154.604315,14.0969625 C154.45579,15.8576863 152.983325,17.2111715 151.216348,17.2111715 L145.626208,17.2111715 L144.795442,13.7731439 Z" id="Path-11" fill="#FFD1DB" transform="translate(149.907111, 9.129574) rotate(-15.000000) translate(-149.907111, -9.129574) "></path>
                <g id="Group" transform="translate(71.439252, 35.303819) rotate(-25.000000) translate(-71.439252, -35.303819) translate(56.981308, 16.163194)">
                    <path d="M15.016705,38.28125 C17.9866175,38.28125 20.5625668,36.090741 22.5851509,33.5352068 C24.83069,30.6979691 26.364486,27.2644305 26.364486,22.7521953 C26.364486,19.2915682 26.2357179,11.8351973 24.8371513,9.2534256 C22.769655,5.43680135 18.7550751,7.22314052 15.016705,7.22314052 C11.8309271,7.22314052 6.69152895,6.36032292 4.63045174,9.2534256 C2.63688467,12.0517653 3.66892404,18.5353646 3.66892404,22.7521953 C3.66892404,31.3286554 8.74949863,38.28125 15.016705,38.28125 Z" id="Oval" fill="#FFD1DB"></path>
                    <path d="M3.06264035,27.2222222 C3.32010068,22.7324544 3.66425659,19.3635957 4.09510808,17.1156462 C4.52595956,14.8676966 5.20482415,12.8989888 6.13170183,11.2095228 C12.1910534,12.0698848 16.705069,12.5000658 19.6737483,12.5000658 C22.6424277,12.5000658 25.7231409,12.0698848 28.9158879,11.2095228 C28.0284946,6.5786742 26.3735718,3.36945472 23.9511195,1.58186438 C20.3174409,-1.09952113 10.649403,0.133194136 6.13170183,1.58186438 C1.61400067,3.03053462 1.43418727,5.23606145 0.307600987,9.16352162 C-0.818985295,13.0909818 1.5030779,24.4718163 1.61633858,25.1717392 C1.6918457,25.6383545 2.17394629,26.3218488 3.06264035,27.2222222 Z" id="Path-20" fill="#3B5F5F"></path>
                </g>
                <path d="M41.557494,18.2946293 L43.2190266,13.8508671 C43.5995581,13.084312 43.9243815,12.1118377 44.1934967,10.9334442 C44.462612,9.75505065 44.5135884,7.96705672 44.3464257,5.56946238 L45.177192,5.56946238 C45.5886983,6.32512057 45.9342042,7.26398163 46.2137096,8.38604557 C46.4932149,9.50810951 46.6760142,10.6901096 46.7621073,11.9320458 L50.0809567,11.9320458 C51.0198407,11.9320458 51.7809567,12.6931618 51.7809567,13.6320458 C51.7809567,13.679741 51.7789495,13.727415 51.7749404,13.7749413 L51.3663679,18.6184478 C51.2178425,20.3791716 49.7453775,21.7326568 47.9784004,21.7326568 L42.3882603,21.7326568 L41.557494,18.2946293 Z" id="Path-11" fill="#FFD1DB" transform="translate(46.669163, 13.651060) rotate(-43.000000) translate(-46.669163, -13.651060) "></path>
            </g>
        </g>
    </g>
</svg>