<?xml version="1.0" encoding="UTF-8"?>
<svg width="137px" height="225px" viewBox="0 0 137 225" version="1.1" xmlns="http://www.w3.org/2000/svg" xmlns:xlink="http://www.w3.org/1999/xlink">
    <!-- Generator: Sketch 52.6 (67491) - http://www.bohemiancoding.com/sketch -->
    <title>Group 2</title>
    <desc>Created with Sketch.</desc>
    <g id="Page-1" stroke="none" stroke-width="1" fill="none" fill-rule="evenodd">
        <g id="kehuja6_VALITTU" transform="translate(-153.000000, -75.000000)">
            <g id="Group-2" transform="translate(152.000000, 75.000000)">
                <path d="M114.529199,216.328631 C118.148688,216.096097 120.662893,215.897801 122.071812,215.733743 C125.791287,215.300639 127.695208,214.874439 127.879988,214.86488 C128.170505,214.84985 128.3578,215.137624 128.441872,215.728203 C126.642581,216.866966 124.854047,217.691232 123.076272,218.201001 C121.466369,218.662633 118.328619,219.306992 113.663023,220.134076 C112.805694,220.286058 111.972118,219.765719 111.732115,218.928754 L111.447817,217.937266 C111.438106,217.941589 111.428439,217.945893 111.418817,217.950177 C102.682941,189.289272 95.7054144,169.097587 90.4862366,157.375122 C89.0248048,154.092692 86.9623609,151.326772 84.4675069,148.34725 C81.6777046,159.322609 79.1592428,167.486393 76.9121217,172.8386 C71.2562586,186.309772 48.7236926,205.030683 34.2543878,216.337152 C36.9396822,218.194129 38.8295092,219.42539 39.9238689,220.030935 C44.255279,222.427647 46.5173561,223.01192 46.7076783,223.131931 C46.9771875,223.301875 46.9261074,223.605077 46.554438,224.041539 C44.2127475,224.261672 42.7871249,224.316886 42.2775702,224.207181 C39.4300834,223.594128 39.2483113,222.40401 38.14056,222.000822 C36.9240054,221.558032 34.7763621,220.521057 31.6976301,218.889896 C30.8682415,218.450473 30.5519084,217.422036 30.9909687,216.592456 L31.2691784,216.066809 C31.2481801,216.064602 31.2274325,216.062421 31.2069358,216.060267 C44.6345818,192.831734 53.3406238,175.119088 57.3250617,162.922327 C60.3910525,153.537024 62.7255464,139.051131 64.3285432,119.464647 C63.6659483,118.132023 63.0007978,116.738657 62.3341692,115.279876 C61.5859489,113.64255 61.9260606,110.460145 63.3545044,105.732662 L65.3170689,105.165675 C65.4056903,103.631923 65.4907334,102.073221 65.572198,100.489566 L77.1229204,101.754949 L83.4849265,99.9169569 C84.2263814,100.847979 84.9558397,101.772877 85.6733017,102.691649 L94.3191562,103.638798 C93.7537226,106.487708 93.1959343,109.2574 92.6457911,111.947875 C103.784108,127.325209 111.231413,140.81796 114.987706,152.426124 C118.481679,163.223634 118.464043,194.94404 114.529199,216.328631 Z" id="Combined-Shape" fill="#4A90E2"></path>
                <path d="M58.6043901,47.0675656 C63.2631918,60.4076614 65.5925926,70.0218269 65.5925926,75.9100622 C65.5925926,82.4111264 64.7683329,92.6592233 63.1198136,106.654353 C70.0164446,110.259558 75.7128288,111.990409 80.208966,111.846906 C84.7051033,111.703404 89.2048671,110.449437 93.7082575,108.085004 C100.131991,87.3058764 103.343858,72.8267272 103.343858,64.6475567 C103.343858,52.3788009 95.645531,44.3889529 91.571486,42.7813033 C89.0669227,41.7929833 79.0936924,41.716034 61.6517952,42.5504553 L61.6517957,42.5504657 C59.7761784,42.6401953 58.3284304,44.2334238 58.4181601,46.1090411 C58.4337944,46.4358454 58.4965178,46.7586821 58.6043901,47.0675656 Z" id="Path-15" fill="#FFFFFF"></path>
                <path d="M49.9877721,23.6930957 C31.6078884,34.5433171 22.9298288,43.9820908 23.9535933,52.0094167 C24.9773578,60.0367427 28.1388756,70.0020133 33.4381467,81.9052287 C36.1028736,81.1214356 37.2972824,80.4920801 37.0213729,80.0171621 C30.4224069,68.6584835 32.5632815,56.9197866 32.5632815,52.0094167 C32.5632815,46.911783 40.3606773,42.5588241 55.9554688,38.9505402 L49.9877721,23.6930957 Z" id="Path-16" fill="#FFFFFF" transform="translate(39.914020, 52.799162) scale(-1, 1) rotate(-115.000000) translate(-39.914020, -52.799162) "></path>
                <path d="M106.708179,42.6456059 C88.3282957,54.8031202 79.6502361,65.379128 80.6740006,74.3736293 C81.6977651,83.3681306 92.3650569,90.2689468 112.675876,95.0760781 C113.904565,92.6797851 114.334964,91.3836473 113.967073,91.1876648 C99.4970002,83.4791864 89.2836888,79.8756269 89.2836888,74.3736293 C89.2836888,68.6618053 95.0918524,58.0857975 106.708179,42.6456059 Z" id="Path-16" fill="#FFFFFF" transform="translate(97.343604, 68.860842) rotate(-42.000000) translate(-97.343604, -68.860842) "></path>
                <path d="M126.925926,72.983686 L128.590163,68.5484794 C128.971314,67.7834002 129.296667,66.8127982 129.56622,65.6366734 C129.835773,64.4605486 129.886833,62.6759971 129.719398,60.2830189 L130.551517,60.2830189 C130.963693,61.0372222 131.309761,61.9742757 131.589722,63.0941793 C131.869682,64.2140829 132.052779,65.3938073 132.139012,66.6333524 L135.465722,66.6333524 C136.404606,66.6333524 137.165722,67.3944684 137.165722,68.3333524 C137.165722,68.3812166 137.163701,68.4290595 137.159663,68.476753 L136.751191,73.3018955 C136.602173,75.0621871 135.129896,76.4150943 133.363309,76.4150943 L127.758045,76.4150943 L126.925926,72.983686 Z" id="Path-11" fill="#FF9AB0"></path>
                <g id="Group" transform="translate(64.740741, 0.000000)">
                    <path d="M15.0411522,38.2075472 C18.0158997,38.2075472 20.5960427,36.0212556 22.6219196,33.4706415 C24.8711144,30.6388663 26.4074074,27.2119384 26.4074074,22.7083905 C26.4074074,19.2544262 26.2784297,11.812411 24.8775862,9.23561 C22.8067241,5.42633388 18.7856084,7.20923382 15.0411522,7.20923382 C11.8501878,7.20923382 6.70242277,6.3480774 4.63799012,9.23561 C2.64117752,12.0285621 3.67489705,18.4996785 3.67489705,22.7083905 C3.67489705,31.2683384 8.76374283,38.2075472 15.0411522,38.2075472 Z" id="Oval" fill="#FF9AB0"></path>
                    <path d="M3.06762633,27.1698113 C3.32550581,22.6886877 3.670222,19.326315 4.10177492,17.0826935 C4.53332783,14.8390719 5.21329761,12.8741544 6.14168425,11.1879412 C12.2109005,12.0466467 16.7322648,12.4759994 19.7057772,12.4759994 C22.6792896,12.4759994 25.7650182,12.0466467 28.962963,11.1879412 C28.0741251,6.56600829 26.4165081,3.36296752 23.9901119,1.57881882 C20.3505177,-1.09740423 10.6667402,0.132937698 6.14168425,1.57881882 C1.61662827,3.02469994 1.43652213,5.22598047 0.308101762,9.14587911 C-0.820318604,13.0657777 1.50552491,24.4247007 1.61896998,25.1232761 C1.69460002,25.588993 2.17748548,26.2711714 3.06762633,27.1698113 Z" id="Path-20" fill="#3B5F5F"></path>
                </g>
                <path d="M2.17933164,40.634097 L3.8435692,36.1988903 C4.22472021,35.4338111 4.55007241,34.4632091 4.81962581,33.2870844 C5.08917921,32.1109596 5.14023854,30.3264081 4.97280379,27.9334298 L5.80492257,27.9334298 C6.21709881,28.6876332 6.56316714,29.6246866 6.84312754,30.7445903 C7.12308795,31.8644939 7.30618479,33.0442183 7.39241807,34.2837634 L10.7191279,34.2837634 C11.658012,34.2837634 12.4191279,35.0448793 12.4191279,35.9837634 C12.4191279,36.0316276 12.4171064,36.0794704 12.4130689,36.127164 L12.0045964,40.9523065 C11.8555789,42.7125981 10.3833022,44.0655053 8.61671435,44.0655053 L3.01145042,44.0655053 L2.17933164,40.634097 Z" id="Path-11" fill="#FF9AB0" transform="translate(7.299323, 35.999468) scale(-1, 1) rotate(-12.000000) translate(-7.299323, -35.999468) "></path>
            </g>
        </g>
    </g>
</svg>