<?xml version="1.0" encoding="UTF-8"?>
<svg width="247px" height="200px" viewBox="0 0 247 200" version="1.1" xmlns="http://www.w3.org/2000/svg" xmlns:xlink="http://www.w3.org/1999/xlink">
    <!-- Generator: Sketch 52.6 (67491) - http://www.bohemiancoding.com/sketch -->
    <title>Group 2</title>
    <desc>Created with Sketch.</desc>
    <g id="Page-1" stroke="none" stroke-width="1" fill="none" fill-rule="evenodd">
        <g id="kehuja2_VALITTU" transform="translate(-102.000000, -96.000000)">
            <g id="Group-2" transform="translate(102.000000, 94.000000)">
                <path d="M139.871506,198.632416 C139.871506,171.633086 139.871506,151.891364 139.871506,139.407251 C139.871506,130.061114 136.336766,116.938263 129.267287,100.0387 C128.383533,97.9260901 125.302037,95.9164829 120.0228,94.0098785 C109.107858,92.7954476 89.0691883,95.9056984 80.6036075,94.9968005 C73.6605031,94.2513616 53.7467387,89.1887219 38.1776406,82.7097845 C30.0861677,79.3425923 23.5578472,70.369766 16.5356192,69.0759436 C16.2658198,67.806637 16.13092,67.1719837 16.13092,67.1719837 C44.3497269,68.429888 64.8713706,69.0648235 77.6958511,69.07679 C90.5203316,69.0887566 108.467114,67.7093714 131.536199,64.9386346 L134.41219,83.5915699 L154.798879,79.8088868 C159.203319,112.126803 160.613873,134.233299 159.030544,146.128375 C156.834932,162.62335 147.730003,178.702092 143.321769,198.753765 C151.77567,200.14175 156.13987,200.867628 156.414368,200.9314 C156.696759,200.997005 156.797115,201.325135 156.715439,201.915788 L139.831597,201.915788 L139.831597,198.632416 L139.871506,198.632416 Z" id="Combined-Shape" fill="#4A90E2"></path>
                <path d="M18.7138829,71.0291266 L18.4299478,69.5865416 C18.2486334,68.6653326 17.3548616,68.0655295 16.4336526,68.2468439 C16.3916765,68.2551058 16.3500273,68.2649492 16.3087938,68.2763531 C12.178027,69.4188022 9.13304198,70.0626568 7.17383869,70.2079169 C5.32090193,70.3452982 3.48277199,70.1076139 1.65944887,69.4948642 L1.65943585,69.4949029 C1.21447103,69.3453671 0.732533059,69.5848597 0.582997264,70.0298245 C0.548095481,70.1336796 0.533602133,70.2433032 0.540315086,70.3526602 C0.577969997,70.9660759 0.699085217,71.2607178 0.903660747,71.236586 C1.13388893,71.2094281 4.63667485,72.6484636 10.6325214,72.7739445 C12.1101157,72.8048676 14.5905108,72.3983895 18.0737066,71.5545102 L18.7138829,71.0291266 Z" id="Path-17" fill="#4A90E2"></path>
                <path d="M194.404035,40.7259372 C194.857692,40.8569642 195.254796,41.1752687 195.471462,41.636193 L195.471451,41.6361981 C203.844281,59.4481138 207.434743,69.5200448 206.242837,71.8519911 C205.421718,73.4585006 202.811484,77.2849307 199.401285,81.3277375 C200.758885,86.8794924 202.361317,90.6811653 204.208582,92.7327613 C207.888762,96.8200152 217.861866,92.6874481 233.732719,88.7661751 C234.136224,88.6664796 234.684484,89.9162984 235.377498,92.5156316 C217.122345,102.486428 204.607605,104.472254 197.83328,98.4731092 C195.25027,96.1856713 193.557914,92.787003 192.756212,88.2771042 C190.058821,90.7022811 187.262615,92.692026 184.668881,93.6360678 C175.953242,96.808301 142.580363,89.8310981 135.692197,85.1520195 C131.100086,82.0326337 128.095985,75.4557602 126.679893,65.421399 C148.573751,62.0170959 162.96388,59.0617222 169.850279,56.5552779 C172.951035,55.4266948 176.320555,53.6571203 179.958839,51.2465543 C171.678842,47.7002975 163.550115,44.1189478 155.572659,40.5025052 C142.62035,34.6307986 132.149061,28.0063366 124.158792,20.6291191 L126.540569,18.2024605 C135.26058,23.9904233 145.49371,28.8090955 157.239959,32.6584773 C168.562826,36.3691122 180.793623,39.0158454 193.932348,40.5986769 C194.098609,40.6187065 194.256909,40.6623183 194.404035,40.7259372 Z" id="Combined-Shape" fill="#FFFFFF"></path>
                <path d="M235.965636,88.2337388 L237.623906,83.8001886 C238.00369,83.0353952 238.327875,82.0651557 238.596462,80.8894702 C238.865049,79.7137846 238.915925,77.9298996 238.749091,75.5378151 L239.578226,75.5378151 C239.988924,76.2917368 240.333752,77.2284403 240.612708,78.3479256 C240.891665,79.467411 241.074105,80.6466948 241.160029,81.885777 L244.468677,81.885777 C245.407561,81.885777 246.168677,82.6468929 246.168677,83.585777 C246.168677,83.633488 246.166669,83.6811779 246.162657,83.72872 L245.755844,88.5497516 C245.607272,90.3104348 244.134825,91.6638655 242.367885,91.6638655 L236.794771,91.6638655 L235.965636,88.2337388 Z" id="Path-11" fill="#FF9AB0"></path>
                <path d="M116.50901,14.176156 L118.16728,9.74260579 C118.547064,8.97781233 118.87125,8.00757284 119.139836,6.83188733 C119.408423,5.65620182 119.4593,3.87231681 119.292465,1.4802323 L120.1216,1.4802323 C120.532298,2.23415394 120.877126,3.17085744 121.156082,4.29034281 C121.435039,5.40982817 121.617479,6.58911195 121.703403,7.82819414 L125.012052,7.82819414 C125.950936,7.82819414 126.712052,8.58931006 126.712052,9.52819414 C126.712052,9.57590519 126.710043,9.62359509 126.706031,9.67113718 L126.299218,14.4921688 C126.150647,16.252852 124.678199,17.6062827 122.911259,17.6062827 L117.338145,17.6062827 L116.50901,14.176156 Z" id="Path-11" fill="#FF9AB0" transform="translate(121.610642, 9.543258) scale(-1, 1) rotate(-24.000000) translate(-121.610642, -9.543258) "></path>
                <g id="Group" transform="translate(218.931137, 34.460095) rotate(35.000000) translate(-218.931137, -34.460095) translate(201.931137, 11.960095)">
                    <path d="M19.2312034,44.1344538 C22.1952839,44.1344538 24.7661749,41.9489787 26.7847874,39.3993173 C29.0259169,36.5685997 30.556701,33.1429517 30.556701,28.6410858 C30.556701,25.1884115 30.4281858,17.7491758 29.0323655,15.1733371 C26.9689291,11.3654837 22.9622325,13.1477178 19.2312034,13.1477178 C16.0516813,13.1477178 10.9223752,12.286883 8.8653453,15.1733371 C6.87569295,17.9652461 7.90570573,24.4339456 7.90570573,28.6410858 C7.90570573,37.1978366 12.9763037,44.1344538 19.2312034,44.1344538 Z" id="Oval" fill="#FF9AB0"></path>
                    <path d="M7.30061258,33.1008403 C7.55756734,28.6213903 7.90104744,25.2602735 8.33105288,23.0174898 C8.76105832,20.7747062 9.43858984,18.8105226 10.3636474,17.1249391 C16.4111005,17.9833239 20.9162519,18.4125163 23.8791018,18.4125163 C26.8419517,18.4125163 29.9166153,17.9833239 33.1030928,17.1249391 C32.2174421,12.5047325 30.565769,9.30288798 28.1480736,7.51940563 C24.5215304,4.84418211 14.8724773,6.07406452 10.3636474,7.51940563 C5.85481756,8.96474674 5.67535725,11.1652051 4.55098321,15.0836398 C3.42660918,19.0020744 5.7441126,30.356755 5.85715087,31.0550695 C5.93250972,31.5206124 6.41366362,32.2025361 7.30061258,33.1008403 Z" id="Path-20" fill="#3B5F5F"></path>
                    <ellipse id="Oval-2" fill="#3B5F5F" transform="translate(6.545823, 6.087159) rotate(43.000000) translate(-6.545823, -6.087159) " cx="6.54582299" cy="6.08715896" rx="4.66838488" ry="3.81932773"></ellipse>
                </g>
            </g>
        </g>
    </g>
</svg>